<?xml version="1.0" encoding="UTF-8"?>
<!DOCTYPE svg PUBLIC "-//W3C//DTD SVG 1.1//EN" "http://www.w3.org/Graphics/SVG/1.1/DTD/svg11.dtd">
<svg version="1.1" xmlns="http://www.w3.org/2000/svg" xmlns:xlink="http://www.w3.org/1999/xlink" x="0" y="0" width="32.908" height="32.896" viewBox="0, 0, 32.908, 32.896">
  <g id="Layer_1" transform="translate(-329.092, -466.104)">
    <g>
      <path d="M345.543,496.588 C353.297,496.588 359.584,490.303 359.584,482.547 C359.584,474.795 353.297,468.516 345.543,468.516 C337.787,468.516 331.5,474.795 331.5,482.547 C331.5,490.303 337.787,496.588 345.543,496.588 M329.092,482.547 C329.092,473.463 336.459,466.104 345.543,466.104 C354.633,466.104 362,473.463 362,482.547 C362,491.631 354.633,499 345.543,499 C336.459,499 329.092,491.631 329.092,482.547" fill="#000000"/>
      <path d="M343.717,487.571 L347.069,487.563 L347.069,484.963 C347.069,484.25 347.401,483.578 348.278,482.998 C349.157,482.43 351.622,481.25 351.622,478.17 C351.622,475.086 349.038,472.971 346.866,472.514 C344.694,472.071 342.337,472.368 340.669,474.194 C339.169,475.835 338.862,477.128 338.862,479.987 L342.214,479.987 L342.214,479.319 C342.214,477.807 342.39,476.194 344.562,475.751 C345.753,475.507 346.867,475.884 347.527,476.532 C348.287,477.276 348.295,478.94 347.082,479.759 L345.195,481.04 C344.093,481.759 343.718,482.548 343.718,483.694 L343.718,487.571 z" fill="#000000"/>
      <path d="M343.695,489.086 L347.095,489.086 L347.095,492.539 L343.695,492.539 z" fill="#000000"/>
    </g>
  </g>
</svg>
