<?xml version="1.0" encoding="UTF-8"?>
<!DOCTYPE svg PUBLIC "-//W3C//DTD SVG 1.1//EN" "http://www.w3.org/Graphics/SVG/1.1/DTD/svg11.dtd">
<svg version="1.1" xmlns="http://www.w3.org/2000/svg" xmlns:xlink="http://www.w3.org/1999/xlink" x="0" y="0" width="1875.861" height="1140" viewBox="0, 0, 750.345, 456">
  <defs>
    <clipPath id="Clip_1">
      <path d="M457.527,185.886 L782.344,185.886 L782.344,500 L457.527,500 z M737.147,206.165 L749.522,210.963 L660.49,304.986 L658.347,304.013 L655.724,304.922 C655.724,304.922 655.494,302.416 652.587,300.706 C652.587,300.706 650.99,299.733 648.879,300.706 L648.083,301.39 L646.769,299.199 L737.147,206.165 z M623.083,322.917 L626.807,324.734 L627.24,324.247 L629.89,325.343 L623.959,331.156 L622.132,328.533 L621.159,328.062 L621.79,324.579 L623.083,322.917 z M620.763,331.12 L623.841,332.642 C623.841,332.642 623.312,335.757 626.353,337.354 C629.393,338.952 631.37,336.366 631.37,336.366 L634.159,337.712 L615.132,357.941 L617.686,349.141 L617.686,342.147 L619.508,337.205 L620.571,331.316 L620.763,331.12 z M595.747,357.006 L593.273,365.186 L593.273,371.801 L599.306,374.772 L508.724,471.098 L494.148,462.127 L595.747,357.006 z M712.868,193.886 L712.281,196.526 L620.187,286.659 L618.204,285.761 L618.204,288.604 L647.228,302.357 L643.349,306.295 L641.009,305.322 L640.095,306.519 L639.924,307.775 L638.385,306.92 L635.083,307.075 L635.783,303.516 L569.854,272.799 L562.021,280.06 L560.499,292.413 L602.25,312.76 L602.25,318.878 L594.187,314.961 L593.733,317.74 L465.493,444.489 L463.527,443.281 L463.527,446.428 L492.198,464.141 L506.784,473.155 L537.288,492 L662.627,351.423 L663.386,348.762 L633.576,334.164 L638.14,329.067 C638.674,325.947 636.088,324.579 636.088,324.579 L637.301,323.061 C637.685,322.223 636.542,321.234 636.542,321.234 L632.551,318.279 L632.967,317.814 L633.625,314.47 L637.985,314.47 L643.403,317.072 L644.316,316.046 L644.717,314.106 C644.717,314.106 646.827,315.02 648.307,313.481 L655.152,306.177 L686.398,320.155 L775.42,221.008 L776.344,218.465 L712.868,193.886 z"/>
    </clipPath>
    <filter id="Shadow_2">
      <feGaussianBlur in="SourceAlpha" stdDeviation="2.5"/>
      <feOffset dx="0" dy="2" result="offsetblur"/>
      <feFlood flood-color="#000000"/>
      <feComposite in2="offsetblur" operator="in"/>
    </filter>
    <linearGradient id="Gradient_1" gradientUnits="userSpaceOnUse" x1="616.426" y1="193.924" x2="623.445" y2="491.962">
      <stop offset="0" stop-color="#0093FF"/>
      <stop offset="1" stop-color="#000542" stop-opacity="0.959"/>
    </linearGradient>
    <clipPath id="Clip_3">
      <path d="M301.4,209.971 L327.313,209.971 L327.313,239.618 L301.4,239.618 z M317.664,217.971 L313.256,220.974 L313.256,222.417 L311.845,221.695 L307.4,224.794 L307.4,228.615 L313.218,231.618 L316.98,228.845 L317.247,228.845 L321.313,225.842 L321.313,219.719 L317.664,217.971 z"/>
    </clipPath>
    <filter id="Shadow_4">
      <feGaussianBlur in="SourceAlpha" stdDeviation="2.5"/>
      <feOffset dx="0" dy="2" result="offsetblur"/>
      <feFlood flood-color="#000000"/>
      <feComposite in2="offsetblur" operator="in"/>
    </filter>
    <linearGradient id="Gradient_2" gradientUnits="userSpaceOnUse" x1="314.2" y1="217.973" x2="314.513" y2="231.616">
      <stop offset="0" stop-color="#0093FF"/>
      <stop offset="1" stop-color="#000542" stop-opacity="0.959"/>
    </linearGradient>
    <clipPath id="Clip_5">
      <path d="M30,40 L701.533,40 L701.533,441.954 L30,441.954 z M331.912,56.084 L339.243,58.959 L231.088,114.084 L223.693,110.627 L331.912,56.084 z M381.732,75.645 L389.773,78.798 L308.819,123.653 L308.119,123.338 L304.737,125.277 L304.737,125.913 L304.032,126.303 L303.898,121.553 L300.896,120.068 L300.89,119.94 L381.732,75.645 z M211.473,117.674 L212.691,118.588 L213.231,126.309 L203.491,121.703 L205.922,120.602 L205.922,121.51 L208.962,122.9 L209.972,122.552 L209.859,119.063 L211.473,117.674 z M279.069,131.898 L279.304,135.162 L281.089,135.958 L279.528,136.925 L274.297,134.51 L279.069,131.898 z M247.261,143.524 L247.625,143.695 L247.518,143.754 L247.261,143.524 z M245.09,144.797 L247.438,145.961 C247.518,149.001 250.937,149.231 250.937,149.231 L252.61,148.472 L253.092,148.699 L235.779,158.26 L235.88,151.437 L235.32,150.107 L245.09,144.797 z M346.846,159.041 L347.039,159.142 L346.766,159.334 L346.846,159.041 z M344.239,158.96 C344.458,159.703 344.96,160.237 344.96,160.237 L345.003,160.553 L343.87,161.338 L343.785,161.306 L343.859,159.228 L344.239,158.96 z M524.441,138.106 L524.27,138.908 L534.587,154.878 L535.993,153.917 L534.037,155.771 L524.077,161.627 L518.168,167.531 L501.513,160.638 L512.964,152.084 C515.55,150.139 516.036,147.312 515.304,144.47 C515.347,144.449 515.368,144.438 515.368,144.438 C516.683,143.3 517.083,141.419 517.083,141.419 L520.733,140.901 L523.527,138.507 L524.441,138.106 z M285.304,160.895 L292.897,164.651 L291.887,165.693 L291.887,167.098 L288.58,169.038 L285.577,167.606 L285.304,160.895 z M357.794,169.759 C357.741,169.919 357.709,170.058 357.682,170.197 L352.457,172.772 L350.277,171.752 L350.271,171.693 L353.75,169.802 C353.873,169.86 353.974,169.876 353.974,169.876 L357.794,169.759 z M479.003,171.404 L478.821,175.316 C477.972,174.958 477.031,174.664 476.021,174.45 C477.32,173.788 478.367,172.714 479.003,171.404 z M519.343,180.493 L521.491,181.423 L516.047,186.584 L511.398,186.75 L515.635,184.057 L519.343,180.493 z M489.93,165.532 L488.642,166.414 L488.642,166.948 L507.124,174.755 L506.055,175.391 L498.073,183.143 L490.667,187.482 L488.567,187.557 L488.396,188.807 L487.424,189.379 L484.795,191.938 L481.215,192.056 L481.781,185.671 L482.668,183.031 L483.491,180.595 C483.491,179.895 483.299,179.222 482.941,178.591 L491.607,182.385 L492.446,181.775 L493.13,170.063 L486.868,167.493 L488.449,166.377 L489.93,165.532 z M193.841,119.555 L195.353,120.298 C196.112,124.059 199.077,123.755 199.077,123.755 L201.054,122.921 L201.631,123.21 L60.979,194.524 L53.37,189.86 L193.841,119.555 z M533.775,186.75 L535.902,187.674 L530.388,192.953 L520.882,198.505 L519.06,200.204 L519.114,197.388 L521.721,194.93 L531.146,189.149 L533.775,186.75 z M463.551,202.635 L463.759,204.152 C463.759,204.153 464.39,204.665 465.586,205.216 L463.278,206.151 L458.245,203.741 L463.551,202.635 z M492.622,203.917 L486.59,207.551 L478.527,215.079 L475.038,216.714 L475.14,215.111 L478.608,212.798 L487.119,204.74 L488.006,204.163 L492.622,203.917 z M456.279,201.641 L456.225,203.479 L454.425,203.982 L453.719,220.273 L442.883,215.191 L442.883,207.69 C442.883,207.113 442.686,206.557 442.328,206.044 L453.719,206.204 L453.821,202.149 L456.279,201.641 z M224.676,155.888 L226.605,160.713 L226.225,163.534 L112.738,226.177 L104.552,221.138 L224.676,155.888 z M516.447,202.635 L513.129,205.729 L503.319,211.66 L495.412,219.338 L485.297,225.423 L478.175,231.75 L476.294,230.868 L478.378,229.607 L485.826,222.533 L495.941,216.148 L504.153,208.315 L513.156,202.811 L516.447,202.635 z M386.498,246.812 C386.022,247.64 385.76,248.527 385.76,249.451 L385.76,255.099 L379.541,251.883 C379.637,251.68 379.723,251.466 379.803,251.252 C380.305,251.102 380.797,250.873 381.267,250.541 L386.498,246.812 z M659.867,176.203 L671.093,180.557 L575.841,266.635 L573.084,265.401 L571.775,266.143 C571.775,266.143 571.717,263.461 568.639,261.922 C568.639,261.922 567.154,261.351 566.128,261.922 L564.931,262.686 L563.798,261.26 L659.867,176.203 z M524.532,277.289 L524.558,277.642 L524.532,277.626 L524.532,277.289 z M547.277,284.166 L547.347,284.203 L541.646,289.22 L541.443,289.124 L541.945,286.105 L543.281,284.166 L545.824,285.341 L547.277,284.166 z M540.545,294.488 C540.892,294.905 541.4,295.338 542.148,295.76 C545.236,297.513 547.117,295.076 547.117,295.076 L549.559,296.273 L539.407,305.495 L539.134,302.909 L540.545,294.488 z M522.234,304.112 L520.123,310.817 L520.733,317.662 L519.461,323.614 L418.444,415.366 L405.685,407.533 L522.234,304.112 z M316.791,48 L316.658,50.095 L208.46,103.493 L206.264,102.462 L206.264,105.476 L219.071,111.476 L211.473,115.238 L209.742,114.1 L206.264,113.816 L204.703,114.025 L196.037,118.508 L194.365,117.215 L178.549,109.537 L178.549,112.048 L38.41,180.669 L36,179.189 L36,181.85 L50.961,191.067 L58.569,195.748 L74.08,205.301 L217.329,131.059 L217.329,129.183 L222.042,131.443 L222.042,140.227 L88.24,211.098 L85.696,209.528 L85.696,212.45 L102.035,222.506 L110.237,227.555 L127.431,238.14 L227.481,181.471 L227.364,183.068 L238.317,188.77 L239.455,180.712 L237.307,175.903 L270.707,156.984 L270.707,154.99 L273.207,156.203 L272.764,164.133 L275.345,170.747 L274.132,179.115 L276.563,186.034 L275.425,194.097 L277.781,200.557 L276.793,208.844 L288.505,215.079 L289.718,206.717 L287.361,200.407 L288.542,192.51 L288.959,192.724 L291.962,190.976 L297.016,193.488 L300.367,191.548 L300.367,188.732 L300.708,188.428 L302.381,189.454 L300.896,190.442 L301.125,195.539 L304.053,196.907 L304.203,200.482 L305.533,201.203 L307.398,200.028 L312.645,202.689 L315.84,200.674 L315.648,195.465 L315.039,195.31 L317.358,193.792 L322.492,196.49 L325.725,194.321 L325.533,189.229 L324.09,188.583 L325.383,187.669 L325.153,182.497 L323.711,181.813 L325.575,180.595 L328.915,182.208 L329.412,193.792 L344.773,201.166 L345.836,199.114 L345.836,192.04 L347.386,191.121 L352.911,193.792 L353.418,194.038 L353.119,194.342 C352.489,196.453 354.428,197.532 354.428,197.532 L355.625,197.532 C354.487,199.643 356.427,200.386 356.427,200.386 L358.537,200.444 L359.28,201.187 L360.359,201.24 L361.214,201.812 L365.552,206.375 L364.297,206.434 C363.837,208.828 365.724,209.57 365.724,209.57 L368.459,209.683 C368.812,209.923 369.159,210.094 369.49,210.217 L362.908,214.513 L362.149,214.283 L360.439,215.079 L360.348,217.072 L361.043,217.478 L362.373,216.757 L368.571,219.872 L368.571,222.153 L373.172,224.585 L374.502,223.826 L374.582,222.875 L376.511,223.917 L367.546,230.099 C366.974,230.494 366.53,230.996 366.21,231.584 C365.419,231.638 364.666,231.873 363.976,232.332 L352.061,240.304 C351.703,238.888 350.977,237.782 349.796,237.184 L328.605,226.428 C324.71,224.424 319.206,229.222 316.107,234.993 L312.57,233.027 L308.274,236.029 L308.274,239.834 L313.746,242.788 C313.671,245.396 314.553,247.629 316.823,248.858 L337.453,259.769 C337.993,260.052 338.543,260.245 339.088,260.351 L337.854,263.595 L335.001,265.609 C334.921,265.668 334.846,265.748 334.776,265.833 C334.14,266.651 334.253,268.676 336.181,271.048 C338.308,273.672 341.273,272.758 341.273,272.758 L344.96,270.135 L347.477,267.885 C350.287,269.814 353.29,270.509 355.7,268.89 L356.806,268.152 C357.265,268.932 357.901,269.579 358.751,270.033 L402.917,293.676 C404.36,294.451 405.947,294.296 407.528,293.511 L408.875,294.104 L404.675,297.336 L404.675,301.333 L397.43,306.863 L397.43,311.309 L401.25,313.419 L403.478,311.709 L403.478,313.761 L407.181,315.701 L408.666,314.563 L408.725,316.556 L412.545,318.554 L414.485,316.785 L414.367,317.245 L413.229,318.725 L413.17,319.922 L417.108,322.145 L423.867,316.502 L423.867,313.991 L424.466,313.307 L426.859,314.621 L438.208,305.266 L438.267,304.411 L438.78,304.411 L443.054,300.874 L443.054,296.31 L439.346,294.318 L439.346,292.378 L434.329,290.438 L434.329,289.583 L429.654,287.302 L429.654,286.842 L425.834,284.679 L419.219,289.926 L416.082,288.558 L414.506,289.765 L413.288,289.242 L413.288,287.922 C417.552,281.617 419.764,272.496 414.923,270.172 L414.853,270.135 L410.435,267.853 C411.477,266.71 412.07,265.395 412.07,263.995 L412.07,249.451 C412.07,245.043 406.182,241.469 398.915,241.469 C396.65,241.469 394.518,241.816 392.653,242.431 L411.29,229.153 C412.096,228.576 412.716,227.913 413.17,227.192 C413.464,227.187 413.747,227.16 414.031,227.107 C414.228,228.832 414.902,230.211 416.195,230.836 L424.786,234.988 C424.717,235.965 424.653,236.911 424.615,237.665 C424.466,240.555 426.63,245.043 427.03,245.423 C427.03,245.423 425.625,248.174 426.143,251.439 C426.309,252.444 426.715,253.256 427.266,253.897 C426.101,255.003 425.374,256.563 425.374,258.294 C425.374,260.319 426.368,262.104 427.885,263.21 C426.998,264.177 426.261,265.614 426.143,267.778 L425.374,277.513 L423.835,279.945 C423.835,279.945 423.552,285.042 431.46,285.042 C437.77,284.508 437.54,280.858 437.54,280.858 L436.327,277.818 L436.253,267.094 C436.253,267.094 436.023,264.968 434.917,263.295 C436.504,262.2 437.54,260.367 437.54,258.294 C437.54,256.563 436.814,255.003 435.654,253.897 C436.231,253.272 436.685,252.55 436.905,251.808 C437.54,249.681 437.236,247.779 436.477,246.256 C436.477,246.256 437.102,245.535 437.807,244.413 L440.602,244.413 L441.783,243.168 L441.772,243.163 C444.38,244.114 446.757,242.553 448.472,239.989 L452.779,242.057 L452.293,253.256 L452.293,253.71 L470.39,262.681 L472.217,261.009 L472.81,251.674 L505.125,267.185 L504.19,267.853 L504.19,272.758 L500.541,271.048 L497.351,273.554 L496.95,278.972 L498.222,279.64 L496.667,280.858 L496.363,286.18 L497.426,286.789 L496.133,287.927 L495.946,292.437 L379.974,391.744 L377.895,390.472 L377.895,393.523 L403.585,409.397 L416.339,417.279 L443.332,433.954 L574.874,308.69 L575.863,305.949 L549.398,292.795 L553.887,288.766 C554.8,287.318 553.427,285.763 553.427,285.763 L555.255,283.898 C555.709,283.215 554.8,282.338 554.8,282.338 L551.984,280.281 L551.984,278.726 L553.203,276.675 L553.251,275.879 L556.719,276.178 L561.623,278.288 L562.591,277.492 L562.591,274.927 L571.487,267.57 L572,267.57 L599.741,280.062 L694.913,189.79 L695.533,187.215 L637.416,164.854 L637.116,167.381 L539.759,249.697 L537.761,248.768 L537.761,251.386 L564.017,263.75 L559.796,267.169 L559.23,267.057 L558.257,267.965 L558.028,269.168 L556.377,268.313 L553.678,268.638 L553.887,265.192 L528.79,253.256 L523.543,252.871 L522.175,251.883 L511.318,246.962 L512.007,246.352 L514.684,246.352 C514.684,246.352 516.741,247.325 515.486,245.556 L515.026,243.499 L516.512,244.018 L517.367,243.157 L517.367,242.591 C517.367,242.591 520.332,243.959 522.555,241.618 C524.783,239.284 524.04,235.629 523.068,234.32 C522.101,233.011 520.391,234.037 520.391,234.036 L520.562,231.354 L519.648,230.841 L519.76,229.415 L520.273,228.961 L520.444,223.714 L519.194,223.254 L517.938,224.339 L515.197,224.568 L511.377,227.764 L511.323,230.328 L508.812,232.268 C508.812,232.268 504.762,230.9 505.734,234.603 L504.88,235.233 L503.624,235.517 L503.453,243.387 L503.448,243.387 L489.646,237.125 L494.423,234.015 L502.48,226.257 L512.291,220.326 L519.744,213.027 L529.25,207.251 L535.864,200.712 L537.232,188.251 L544.91,191.585 L555.938,182.614 L538.899,175.599 L539.663,167.632 L533.492,173.371 L530.564,172.169 L532.744,170.827 L540.123,163.828 L541.565,148.622 L538.312,151.715 L528.143,135.942 L528.143,135.483 C530.03,135.713 531.51,134.516 531.51,134.516 C534.192,132.405 533.278,128.868 531.51,126.191 C529.741,123.509 526.375,123.397 525.007,123.739 C523.639,124.081 522.555,126.191 522.555,126.191 L522.271,126.191 L511.719,109.649 L507.674,112.39 L518.392,129.21 L518.392,129.611 L514.572,132.261 L512.916,135.6 C511.5,135.21 510.554,135.392 510.004,135.616 L502.101,129.461 L501.177,129.002 C501.177,129.002 502.026,127.099 499.82,126.191 C499.82,126.191 498.233,126.111 498.078,126.72 C498.078,126.72 494.952,126.8 496.325,129.915 C497.693,132.272 499.975,130.22 499.975,130.22 L505.446,134.211 C504.34,134.029 503.293,134.184 502.406,134.777 L486.74,145.293 C484.752,146.629 483.833,148.643 483.705,150.871 L480.05,153.527 C480.061,153.446 480.066,153.393 480.066,153.393 L480.526,152.65 L480.526,152.42 L480.964,152.121 L480.526,151.934 L480.526,149.172 L479.5,148.718 C479.329,147.532 477.731,145.533 477.111,145.047 C476.561,144.55 475.487,144.213 474.253,144.213 C473.585,144.213 472.971,144.31 472.458,144.475 L472.596,142.958 L470.716,142.958 L470.432,145.576 L468.199,146.773 L452.827,140.334 L453.281,139.875 L430.012,130.22 L418.075,137.748 L441.494,147.783 L442.103,147.403 L468.092,158.544 L468.092,159.265 C468.482,160.692 469.615,161.947 470.149,162.476 C468.589,163.219 467.366,164.539 466.751,166.168 L466.559,166.04 L466.97,159.041 L454.537,153.719 L453.436,154.173 L453.057,165.581 L455.995,166.906 L436.637,180.563 L436.905,169.663 L434.34,179.125 L434.34,182.182 L433.255,182.946 L433.618,168.156 L431.054,177.624 L431.054,189.934 C430.723,190.063 430.407,190.223 430.103,190.405 L427.928,190.474 L429.713,183.165 L430.108,166.911 L427.543,176.379 L427.543,190.485 L423.552,190.613 L423.552,189.609 L421.725,188.62 C421.041,186.568 418.839,186.643 418.839,186.643 L417.162,186.793 L410.926,183.827 L403.702,182.689 L402.49,184.891 L397.168,185.959 L397.168,187.327 L399.449,188.695 L399.449,191.585 L401.122,192.419 L401.122,195.593 L370.853,181.396 L366.247,179.238 L370.324,176.224 L380.588,170.747 L389.03,164.512 L399.065,159.65 L406.898,153.564 L416.173,148.622 L416.553,135.013 L407.052,139.65 L398.915,145.656 L388.95,150.449 L380.588,156.684 L370.244,161.776 L361.604,168.167 C362.053,166.783 361.102,165.826 361.102,165.826 L361.048,165.826 L361.503,165.581 L370.244,158.966 L380.663,153.868 L389.105,147.483 L399.139,142.156 L407.127,136.225 L416.553,131.513 L416.937,117.295 L407.052,122.157 L399.065,128.393 L388.95,133.26 L380.358,139.57 L370.094,144.742 L361.348,151.133 L350.704,156.604 L348.391,158.207 C348.385,158.159 348.385,158.127 348.385,158.127 L347.701,157.785 L347.701,156.812 L349.048,155.519 L350.4,154.552 L361.428,148.622 L370.094,141.932 L380.663,136.455 L389.03,129.915 L399.139,124.898 L407.352,118.588 L416.937,113.491 L416.937,99.192 L407.277,104.06 L399.065,110.376 L388.8,115.467 L380.134,122.082 L369.56,127.404 L360.589,134.099 L349.79,139.57 L340.515,146.19 L334.814,147.329 L330.021,145.122 L327.36,145.806 L328.022,161.322 L318.613,156.909 L318.688,156.38 L313.521,153.943 L313.099,153.756 L313.099,151.015 L316.674,148.851 L320.173,150.524 L323.444,148.509 L323.251,143.107 L321.504,142.311 L323.176,141.323 L322.909,135.958 L321.087,135.125 L322.759,134.136 L322.728,132.956 L406.342,85.306 L406.614,83.19 L365.665,67.16 L365.665,69.335 L257.771,126.886 L255.768,125.961 L255.768,128.243 L275.249,137.369 L271.546,137.369 L264.017,140.863 L264.589,151.373 L255.426,146.949 L259.684,144.668 C259.876,144.01 259.946,143.417 259.924,142.883 L260.598,142.536 L260.598,130.524 L244.654,123.071 L244.675,122.531 L354.653,65.012 L354.941,63.057 L316.791,48 z"/>
    </clipPath>
    <filter id="Shadow_6">
      <feGaussianBlur in="SourceAlpha" stdDeviation="2.5"/>
      <feOffset dx="0" dy="2" result="offsetblur"/>
      <feFlood flood-color="#000000"/>
      <feComposite in2="offsetblur" operator="in"/>
    </filter>
    <linearGradient id="Gradient_3" gradientUnits="userSpaceOnUse" x1="358.367" y1="48.049" x2="373.166" y2="433.906">
      <stop offset="0" stop-color="#0093FF"/>
      <stop offset="1" stop-color="#000542" stop-opacity="0.959"/>
    </linearGradient>
    <clipPath id="Clip_7">
      <path d="M167.733,278.602 L346.913,278.602 L346.913,385.133 L167.733,385.133 z M277.491,286.883 Q276.202,286.883 275.229,287.762 Q274.257,288.641 274.257,290 Q274.257,291.5 275.206,292.321 Q276.155,293.141 277.491,293.141 Q278.78,293.141 279.718,292.309 Q280.655,291.477 280.655,290 Q280.655,288.477 279.694,287.68 Q278.733,286.883 277.491,286.883 z M176.897,286.602 Q175.444,286.602 174.589,287.586 Q173.733,288.571 173.733,290.492 L173.733,318.242 Q173.733,320.117 174.612,321.125 Q175.491,322.133 176.897,322.133 Q178.327,322.133 179.229,321.16 Q180.132,320.188 180.132,318.242 L180.132,290.492 Q180.132,288.547 179.241,287.575 Q178.351,286.602 176.897,286.602 z M197.921,300.852 Q200.827,300.852 202.55,303.032 Q204.272,305.211 204.272,309.125 Q204.272,312.992 202.55,315.184 Q200.827,317.375 197.921,317.375 Q195.999,317.375 194.581,316.379 Q193.163,315.383 192.401,313.508 Q191.64,311.633 191.64,309.125 Q191.64,306.594 192.413,304.696 Q193.187,302.797 194.616,301.825 Q196.046,300.852 197.921,300.852 z M197.921,296.117 Q195.062,296.117 192.694,297.043 Q190.327,297.969 188.663,299.68 Q186.999,301.391 186.108,303.805 Q185.218,306.219 185.218,309.125 Q185.218,312.008 186.097,314.387 Q186.976,316.766 188.675,318.512 Q190.374,320.258 192.694,321.196 Q195.015,322.133 197.921,322.133 Q200.851,322.133 203.194,321.207 Q205.538,320.282 207.226,318.547 Q208.913,316.813 209.804,314.399 Q210.694,311.985 210.694,309.125 Q210.694,306.242 209.815,303.852 Q208.937,301.461 207.249,299.727 Q205.562,297.992 203.194,297.055 Q200.827,296.117 197.921,296.117 z M231.483,309.266 L231.483,310.18 Q231.483,313.508 230.616,314.961 Q229.866,316.274 228.261,317.106 Q226.655,317.938 224.757,317.938 Q222.976,317.938 221.874,316.918 Q220.772,315.899 220.772,314.446 Q220.772,313.039 221.71,312.254 Q222.647,311.469 223.679,311.2 Q224.71,310.93 227.394,310.356 Q230.077,309.782 231.483,309.266 z M226.726,296.071 Q222.952,296.071 220.421,297.102 Q217.89,298.133 216.694,299.727 Q215.499,301.321 215.499,303.008 Q215.499,304.086 216.284,304.778 Q217.069,305.469 218.147,305.469 Q219.343,305.469 219.706,305.035 Q220.069,304.602 220.948,303.242 Q221.827,301.883 223.058,301.203 Q224.288,300.524 226.726,300.524 Q229.562,300.524 230.464,301.707 Q231.366,302.891 231.483,305.422 Q229.468,306.008 227.745,306.418 Q226.022,306.828 223.608,307.321 Q221.194,307.813 220.585,307.953 Q217.679,308.586 216.015,310.438 Q214.351,312.289 214.351,314.914 Q214.351,316.86 215.358,318.524 Q216.366,320.188 218.229,321.16 Q220.093,322.133 222.554,322.133 Q225.249,322.133 227.417,321.231 Q229.585,320.328 231.905,318.524 Q232.983,320.282 233.944,321.207 Q234.905,322.133 235.89,322.133 Q237.062,322.133 237.987,321.325 Q238.913,320.516 238.913,319.532 Q238.913,318.969 238.315,317.012 Q237.718,315.055 237.718,313.25 Q237.741,311.328 237.753,309.758 Q237.765,308.188 237.765,305.938 Q237.765,302.375 236.769,300.219 Q235.772,298.063 233.358,297.067 Q230.944,296.071 226.725,296.071 z M255.249,300.899 Q256.937,300.899 258.354,301.871 Q259.772,302.844 260.604,304.684 Q261.437,306.524 261.437,309.078 Q261.437,311.797 260.604,313.614 Q259.772,315.43 258.378,316.309 Q256.983,317.188 255.296,317.188 Q253.632,317.188 252.226,316.262 Q250.819,315.336 250.011,313.508 Q249.202,311.68 249.202,309.078 Q249.202,306.617 249.964,304.754 Q250.726,302.891 252.108,301.895 Q253.491,300.899 255.249,300.899 z M264.812,286.602 Q263.358,286.602 262.573,287.61 Q261.788,288.617 261.788,290.586 L261.788,300.032 Q259.983,298.063 258.085,297.114 Q256.187,296.164 253.421,296.164 Q248.64,296.164 245.71,299.516 Q242.78,302.867 242.78,308.867 Q242.78,311.703 243.519,314.141 Q244.257,316.578 245.687,318.383 Q247.116,320.188 249.073,321.16 Q251.03,322.133 253.327,322.133 Q255.062,322.133 256.526,321.653 Q257.991,321.172 259.245,320.246 Q260.499,319.321 261.788,317.844 L261.788,318.477 Q261.788,320.235 262.644,321.184 Q263.499,322.133 264.812,322.133 Q266.147,322.133 266.991,321.219 Q267.835,320.305 267.835,318.477 L267.835,290.258 Q267.835,288.453 267.05,287.528 Q266.265,286.602 264.811,286.602 z M277.421,296.117 Q276.015,296.117 275.136,297.078 Q274.257,298.039 274.257,299.938 L274.257,318.242 Q274.257,320.117 275.136,321.125 Q276.015,322.133 277.421,322.133 Q278.827,322.133 279.741,321.149 Q280.655,320.164 280.655,318.242 L280.655,299.75 Q280.655,298.039 279.741,297.078 Q278.827,296.117 277.421,296.117 z M301.374,296.117 Q298.772,296.117 296.769,297.16 Q294.765,298.203 293.077,300.43 L293.077,299.657 Q293.077,298.508 292.667,297.711 Q292.257,296.914 291.577,296.516 Q290.897,296.117 290.054,296.117 Q288.671,296.117 287.874,297.02 Q287.077,297.922 287.077,299.75 L287.077,318.242 Q287.077,320.117 287.968,321.125 Q288.858,322.133 290.241,322.133 Q291.671,322.133 292.573,321.16 Q293.476,320.188 293.475,318.242 L293.476,310.227 Q293.476,306.313 293.944,304.883 Q294.601,303.102 296.007,302.082 Q297.413,301.063 299.124,301.063 Q301.749,301.063 302.628,302.739 Q303.507,304.414 303.507,307.578 L303.507,318.242 Q303.507,320.117 304.397,321.125 Q305.288,322.133 306.718,322.133 Q308.124,322.133 309.003,321.149 Q309.882,320.164 309.882,318.242 L309.882,306.336 Q309.882,304.227 309.694,302.867 Q309.507,301.508 308.874,300.336 Q307.89,298.321 305.897,297.219 Q303.905,296.117 301.374,296.117 z M327.296,300.899 Q330.108,300.899 331.831,303.078 Q333.554,305.258 333.554,309.172 Q333.554,311.633 332.663,313.356 Q331.772,315.078 330.354,315.934 Q328.937,316.789 327.343,316.789 Q324.647,316.789 322.948,314.797 Q321.249,312.805 321.249,308.914 Q321.249,305.071 322.901,302.985 Q324.554,300.899 327.296,300.899 z M336.718,296.117 Q335.429,296.117 334.608,297.032 Q333.788,297.946 333.788,299.61 L333.788,300.477 Q332.077,298.25 330.085,297.207 Q328.093,296.164 325.374,296.164 Q323.101,296.164 321.202,296.973 Q319.304,297.782 317.851,299.375 Q316.397,300.969 315.612,303.289 Q314.827,305.61 314.827,308.492 Q314.827,312.36 316.116,315.313 Q317.405,318.266 319.808,319.907 Q322.21,321.547 325.421,321.547 Q328.093,321.547 330.026,320.469 Q331.96,319.391 333.437,317.328 Q333.39,320.469 333.296,321.887 Q333.202,323.305 332.651,324.547 Q332.101,325.789 330.729,326.481 Q329.358,327.172 326.874,327.172 Q325.655,327.172 324.718,326.95 Q323.78,326.727 323.112,326.27 Q322.444,325.813 321.894,325.168 Q321.343,324.524 320.827,323.891 Q319.772,322.649 318.366,322.649 Q317.241,322.649 316.444,323.387 Q315.647,324.125 315.647,325.297 Q315.647,326.844 317.054,328.309 Q318.46,329.774 321.062,330.7 Q323.663,331.625 326.968,331.625 Q330.577,331.625 333.003,330.899 Q335.429,330.172 336.929,328.672 Q338.429,327.172 339.108,324.875 Q339.788,322.578 339.788,319.391 L339.788,300.805 Q339.788,298.532 339.179,297.325 Q338.569,296.117 336.718,296.117 z M254.405,355.899 Q256.093,355.899 257.511,356.871 Q258.929,357.844 259.761,359.684 Q260.593,361.524 260.593,364.078 Q260.593,366.797 259.761,368.614 Q258.929,370.43 257.534,371.309 Q256.14,372.188 254.452,372.188 Q252.788,372.188 251.382,371.262 Q249.976,370.336 249.167,368.508 Q248.358,366.68 248.358,364.078 Q248.358,361.617 249.12,359.754 Q249.882,357.891 251.265,356.895 Q252.647,355.899 254.405,355.899 z M263.968,341.602 Q262.515,341.602 261.729,342.61 Q260.944,343.617 260.944,345.586 L260.944,355.032 Q259.14,353.063 257.241,352.114 Q255.343,351.164 252.577,351.164 Q247.796,351.164 244.866,354.516 Q241.937,357.867 241.937,363.867 Q241.937,366.703 242.675,369.141 Q243.413,371.578 244.843,373.383 Q246.272,375.188 248.229,376.16 Q250.187,377.133 252.483,377.133 Q254.218,377.133 255.683,376.653 Q257.147,376.172 258.401,375.246 Q259.655,374.321 260.944,372.844 L260.944,373.477 Q260.944,375.235 261.8,376.184 Q262.655,377.133 263.968,377.133 Q265.304,377.133 266.147,376.219 Q266.991,375.305 266.991,373.477 L266.991,345.258 Q266.991,343.453 266.206,342.528 Q265.421,341.602 263.968,341.602 z M289.163,364.266 L289.163,365.18 Q289.163,368.508 288.296,369.961 Q287.546,371.274 285.94,372.106 Q284.335,372.938 282.437,372.938 Q280.655,372.938 279.554,371.918 Q278.452,370.899 278.452,369.446 Q278.452,368.039 279.39,367.254 Q280.327,366.469 281.358,366.2 Q282.39,365.93 285.073,365.356 Q287.757,364.782 289.163,364.266 z M284.405,351.071 Q280.632,351.071 278.101,352.102 Q275.569,353.133 274.374,354.727 Q273.179,356.321 273.179,358.008 Q273.179,359.086 273.964,359.778 Q274.749,360.469 275.827,360.469 Q277.022,360.469 277.386,360.035 Q277.749,359.602 278.628,358.242 Q279.507,356.883 280.737,356.203 Q281.968,355.524 284.405,355.524 Q287.241,355.524 288.144,356.707 Q289.046,357.891 289.163,360.422 Q287.147,361.008 285.425,361.418 Q283.702,361.828 281.288,362.321 Q278.874,362.813 278.265,362.953 Q275.358,363.586 273.694,365.438 Q272.03,367.289 272.03,369.914 Q272.03,371.86 273.038,373.524 Q274.046,375.188 275.909,376.16 Q277.772,377.133 280.233,377.133 Q282.929,377.133 285.097,376.231 Q287.265,375.328 289.585,373.524 Q290.663,375.282 291.624,376.207 Q292.585,377.133 293.569,377.133 Q294.741,377.133 295.667,376.325 Q296.593,375.516 296.593,374.532 Q296.593,373.969 295.995,372.012 Q295.397,370.055 295.397,368.25 Q295.421,366.328 295.433,364.758 Q295.444,363.188 295.444,360.938 Q295.444,357.375 294.448,355.219 Q293.452,353.063 291.038,352.067 Q288.624,351.071 284.405,351.071 z M304.983,342.422 Q304.116,342.422 303.413,342.832 Q302.71,343.242 302.335,343.899 Q301.96,344.532 301.878,345.41 Q301.796,346.289 301.796,347.836 L301.796,351.68 L301.093,351.68 Q299.64,351.68 298.878,352.325 Q298.116,352.969 298.116,353.977 Q298.116,354.985 298.843,355.641 Q299.569,356.297 300.952,356.297 L301.796,356.297 L301.796,368.578 Q301.796,371.555 302.276,373.336 Q302.757,375.117 304.304,376.125 Q305.851,377.133 308.851,377.133 Q312.015,377.133 313.702,376.313 Q315.39,375.492 315.39,373.946 Q315.39,373.032 314.769,372.41 Q314.147,371.789 313.374,371.789 Q312.835,371.789 311.874,371.989 Q310.913,372.188 310.351,372.188 Q309.319,372.188 308.862,371.684 Q308.405,371.18 308.3,370.371 Q308.194,369.563 308.194,368.063 L308.194,356.297 L309.39,356.297 Q311.288,356.297 312.308,355.782 Q313.327,355.266 313.327,353.977 Q313.327,352.969 312.612,352.325 Q311.897,351.68 310.538,351.68 L308.194,351.68 L308.194,347.321 Q308.194,345.703 308.019,344.825 Q307.843,343.946 307.187,343.336 Q306.202,342.422 304.983,342.422 z M333.483,364.266 L333.483,365.18 Q333.483,368.508 332.616,369.961 Q331.866,371.274 330.261,372.106 Q328.655,372.938 326.757,372.938 Q324.976,372.938 323.874,371.918 Q322.772,370.899 322.772,369.446 Q322.772,368.039 323.71,367.254 Q324.647,366.469 325.679,366.2 Q326.71,365.93 329.394,365.356 Q332.077,364.782 333.483,364.266 z M328.726,351.071 Q324.952,351.071 322.421,352.102 Q319.89,353.133 318.694,354.727 Q317.499,356.321 317.499,358.008 Q317.499,359.086 318.284,359.778 Q319.069,360.469 320.147,360.469 Q321.343,360.469 321.706,360.035 Q322.069,359.602 322.948,358.242 Q323.827,356.883 325.058,356.203 Q326.288,355.524 328.726,355.524 Q331.562,355.524 332.464,356.707 Q333.366,357.891 333.483,360.422 Q331.468,361.008 329.745,361.418 Q328.022,361.828 325.608,362.321 Q323.194,362.813 322.585,362.953 Q319.679,363.586 318.015,365.438 Q316.351,367.289 316.351,369.914 Q316.351,371.86 317.358,373.524 Q318.366,375.188 320.229,376.16 Q322.093,377.133 324.554,377.133 Q327.249,377.133 329.417,376.231 Q331.585,375.328 333.905,373.524 Q334.983,375.282 335.944,376.207 Q336.905,377.133 337.89,377.133 Q339.062,377.133 339.987,376.325 Q340.913,375.516 340.913,374.532 Q340.913,373.969 340.315,372.012 Q339.718,370.055 339.718,368.25 Q339.741,366.328 339.753,364.758 Q339.765,363.188 339.765,360.938 Q339.765,357.375 338.769,355.219 Q337.772,353.063 335.358,352.067 Q332.944,351.071 328.725,351.071 z"/>
    </clipPath>
    <filter id="Shadow_8">
      <feGaussianBlur in="SourceAlpha" stdDeviation="2.5"/>
      <feOffset dx="0" dy="2" result="offsetblur"/>
      <feFlood flood-color="#000000"/>
      <feComposite in2="offsetblur" operator="in"/>
    </filter>
    <linearGradient id="Gradient_4" gradientUnits="userSpaceOnUse" x1="255.448" y1="286.613" x2="259.199" y2="377.122">
      <stop offset="0" stop-color="#0093FF"/>
      <stop offset="1" stop-color="#000542" stop-opacity="0.959"/>
    </linearGradient>
  </defs>
  <g id="Layer_1" transform="translate(-31, -43)">
    <g id="International_Space_Station">
      <g id="path1410">
        <path d="M712.868,193.886 L776.344,218.465 L775.42,221.008 L686.398,320.155 L655.152,306.177 L648.307,313.481 C646.827,315.02 644.717,314.106 644.717,314.106 L644.316,316.046 L643.403,317.072 L637.985,314.47 L633.625,314.47 L632.967,317.814 L632.551,318.279 L636.542,321.234 C636.542,321.234 637.685,322.223 637.301,323.061 L636.088,324.579 C636.088,324.579 638.674,325.947 638.14,329.067 L633.576,334.164 L663.386,348.762 L662.627,351.423 L537.288,492 L506.784,473.155 L492.198,464.141 L463.527,446.428 L463.527,443.281 L465.493,444.489 L593.733,317.74 L594.187,314.961 L602.25,318.878 L602.25,312.76 L560.499,292.413 L562.021,280.06 L569.854,272.799 L635.783,303.516 L635.083,307.075 L638.385,306.92 L639.924,307.775 L640.095,306.519 L641.009,305.322 L643.349,306.295 L647.228,302.357 L618.204,288.604 L618.204,285.761 L620.187,286.659 L712.281,196.526 L712.868,193.886 z M595.747,357.006 L494.148,462.127 L508.724,471.098 L599.306,374.772 L593.273,371.801 L593.273,365.186 L595.747,357.006 z M620.763,331.12 L620.571,331.316 L619.508,337.205 L617.686,342.147 L617.686,349.141 L615.132,357.941 L634.159,337.712 L631.37,336.366 C631.37,336.366 629.393,338.952 626.353,337.354 C623.312,335.757 623.841,332.642 623.841,332.642 L620.763,331.12 z M623.083,322.917 L621.79,324.579 L621.159,328.062 L622.132,328.533 L623.959,331.156 L629.89,325.343 L627.24,324.247 L626.807,324.734 L623.083,322.917 z M737.147,206.165 L646.769,299.199 L648.083,301.39 L648.879,300.706 C650.99,299.733 652.587,300.706 652.587,300.706 C655.494,302.416 655.724,304.922 655.724,304.922 L658.347,304.013 L660.49,304.986 L749.522,210.963 L737.147,206.165 z" clip-path="url(#Clip_1)" filter="url(#Shadow_2)" fill="rgba(0,0,0,0.75)"/>
        <path d="M660.49,304.986 L658.347,304.013 L655.724,304.922 C655.724,304.922 655.494,302.416 652.587,300.706 C652.587,300.706 650.99,299.733 648.879,300.706 L648.083,301.39 L646.769,299.199 L737.147,206.165 L749.522,210.963 L660.49,304.986 z M629.89,325.343 L623.959,331.156 L622.132,328.533 L621.159,328.063 L621.79,324.579 L623.083,322.917 L626.807,324.734 L627.24,324.248 L629.89,325.343 z M634.159,337.712 L615.132,357.941 L617.686,349.141 L617.686,342.147 L619.508,337.205 L620.571,331.317 L620.764,331.119 L620.62,331.049 L623.841,332.642 C623.841,332.642 623.312,335.757 626.353,337.354 C629.393,338.952 631.37,336.366 631.37,336.366 L634.159,337.712 z M494.148,462.127 L595.747,357.006 L593.273,365.187 L593.273,371.801 L599.306,374.772 L508.724,471.098 L494.148,462.127 z M712.868,193.886 L712.281,196.526 L620.187,286.659 L618.204,285.761 L618.204,288.604 L647.228,302.357 L643.349,306.295 L641.009,305.322 L640.095,306.519 L639.924,307.775 L638.385,306.92 L635.083,307.075 L635.783,303.516 L569.855,272.799 L562.022,280.06 L560.499,292.413 L602.25,312.76 L602.25,316.596 L602.25,318.878 L594.187,314.961 L593.733,317.74 L602.25,321.95 L593.733,317.74 L465.493,444.489 L463.527,443.281 L463.527,446.429 L492.198,464.141 L506.784,473.155 L537.288,492 L662.627,351.423 L663.386,348.762 L633.577,334.164 L638.14,329.067 C638.674,325.947 636.088,324.579 636.088,324.579 L637.301,323.061 C637.685,322.223 636.542,321.234 636.542,321.234 L632.551,318.279 L632.967,317.814 L633.625,314.47 L637.985,314.47 L643.403,317.072 L644.316,316.046 L644.717,314.106 C644.717,314.106 646.827,315.02 648.307,313.481 L655.152,306.177 L686.399,320.155 L775.42,221.008 L776.345,218.465 L712.868,193.886 z" fill="url(#Gradient_1)"/>
      </g>
      <g id="path1414">
        <path d="M317.664,217.971 L321.313,219.719 L321.313,225.842 L317.247,228.845 L316.98,228.845 L313.218,231.618 L307.4,228.615 L307.4,224.794 L311.845,221.695 L313.256,222.417 L313.256,220.974 L317.664,217.971 z" clip-path="url(#Clip_3)" filter="url(#Shadow_4)" fill="rgba(0,0,0,0.75)"/>
        <path d="M316.98,228.845 L317.247,228.845 L321.313,225.842 L321.313,219.719 L317.664,217.971 L313.256,220.974 L313.256,222.417 L311.845,221.696 L307.4,224.795 L307.4,228.615 L313.218,231.618 L316.98,228.845 z" fill="url(#Gradient_2)"/>
      </g>
      <g id="path1418">
        <path d="M316.791,48 L354.941,63.057 L354.653,65.012 L244.675,122.531 L244.654,123.071 L260.598,130.524 L260.598,142.536 L259.924,142.883 C259.946,143.417 259.876,144.01 259.684,144.668 L255.426,146.949 L264.589,151.373 L264.017,140.863 L271.546,137.369 L275.249,137.369 L255.768,128.243 L255.768,125.961 L257.771,126.886 L365.665,69.335 L365.665,67.16 L406.614,83.19 L406.342,85.306 L322.728,132.956 L322.759,134.136 L321.087,135.125 L322.909,135.958 L323.176,141.323 L321.504,142.311 L323.251,143.107 L323.444,148.509 L320.173,150.524 L316.674,148.851 L313.099,151.015 L313.099,153.756 L313.521,153.943 L318.688,156.38 L318.613,156.909 L328.022,161.322 L327.36,145.806 L330.021,145.122 L334.814,147.329 L340.515,146.19 L349.79,139.57 L360.589,134.099 L369.56,127.404 L380.134,122.082 L388.8,115.467 L399.065,110.376 L407.277,104.06 L416.937,99.192 L416.937,113.491 L407.352,118.588 L399.139,124.898 L389.03,129.915 L380.663,136.455 L370.094,141.932 L361.428,148.622 L350.4,154.552 L349.048,155.519 L347.701,156.812 L347.701,157.785 L348.385,158.127 C348.385,158.127 348.385,158.159 348.391,158.207 L350.704,156.604 L361.348,151.133 L370.094,144.742 L380.358,139.57 L388.95,133.26 L399.065,128.393 L407.052,122.157 L416.937,117.295 L416.553,131.513 L407.127,136.225 L399.139,142.156 L389.105,147.483 L380.663,153.868 L370.244,158.966 L361.503,165.581 L361.048,165.826 L361.102,165.826 C361.102,165.826 362.053,166.783 361.604,168.167 L370.244,161.776 L380.588,156.684 L388.95,150.449 L398.915,145.656 L407.052,139.65 L416.553,135.013 L416.173,148.622 L406.898,153.564 L399.065,159.65 L389.03,164.512 L380.588,170.747 L370.324,176.224 L366.247,179.238 L370.853,181.396 L401.122,195.593 L401.122,192.419 L399.449,191.585 L399.449,188.695 L397.168,187.327 L397.168,185.959 L402.49,184.891 L403.702,182.689 L410.926,183.827 L417.162,186.793 L418.839,186.643 C418.839,186.643 421.041,186.568 421.725,188.62 L423.552,189.609 L423.552,190.613 L427.543,190.485 L427.543,176.379 L430.108,166.911 L429.713,183.165 L427.928,190.474 L430.103,190.405 C430.407,190.223 430.723,190.063 431.054,189.934 L431.054,177.624 L433.618,168.156 L433.255,182.946 L434.34,182.182 L434.34,179.125 L436.905,169.663 L436.637,180.563 L455.995,166.906 L453.057,165.581 L453.436,154.173 L454.537,153.719 L466.97,159.041 L466.559,166.04 L466.751,166.168 C467.366,164.539 468.589,163.219 470.149,162.476 C469.615,161.947 468.482,160.692 468.092,159.265 L468.092,158.544 L442.103,147.403 L441.494,147.783 L418.075,137.748 L430.012,130.22 L453.281,139.875 L452.827,140.334 L468.199,146.773 L470.432,145.576 L470.716,142.958 L472.596,142.958 L472.458,144.475 C472.971,144.31 473.585,144.213 474.253,144.213 C475.487,144.213 476.561,144.55 477.111,145.047 C477.731,145.533 479.329,147.532 479.5,148.718 L480.526,149.172 L480.526,151.934 L480.964,152.121 L480.526,152.42 L480.526,152.65 L480.066,153.393 C480.066,153.393 480.061,153.446 480.05,153.527 L483.705,150.871 C483.833,148.643 484.752,146.629 486.74,145.293 L502.406,134.777 C503.293,134.184 504.34,134.029 505.446,134.211 L499.975,130.22 C499.975,130.22 497.693,132.272 496.325,129.915 C494.952,126.8 498.078,126.72 498.078,126.72 C498.233,126.111 499.82,126.191 499.82,126.191 C502.026,127.099 501.177,129.002 501.177,129.002 L502.101,129.461 L510.004,135.616 C510.554,135.392 511.5,135.21 512.916,135.6 L514.572,132.261 L518.392,129.611 L518.392,129.21 L507.674,112.39 L511.719,109.649 L522.271,126.191 L522.555,126.191 C522.555,126.191 523.639,124.081 525.007,123.739 C526.375,123.397 529.741,123.509 531.51,126.191 C533.278,128.868 534.192,132.405 531.51,134.516 C531.51,134.516 530.03,135.713 528.143,135.483 L528.143,135.942 L538.312,151.715 L541.565,148.622 L540.123,163.828 L532.744,170.827 L530.564,172.169 L533.492,173.371 L539.663,167.632 L538.899,175.599 L555.938,182.614 L544.91,191.585 L537.232,188.251 L535.864,200.712 L529.25,207.251 L519.744,213.027 L512.291,220.326 L502.48,226.257 L494.423,234.015 L489.646,237.125 L503.448,243.387 L503.453,243.387 L503.624,235.517 L504.88,235.233 L505.734,234.603 C504.762,230.9 508.812,232.268 508.812,232.268 L511.323,230.328 L511.377,227.764 L515.197,224.568 L517.938,224.339 L519.194,223.254 L520.444,223.714 L520.273,228.961 L519.76,229.415 L519.648,230.841 L520.562,231.354 L520.391,234.036 C520.391,234.037 522.101,233.011 523.068,234.32 C524.04,235.629 524.783,239.284 522.555,241.618 C520.332,243.959 517.367,242.591 517.367,242.591 L517.367,243.157 L516.512,244.018 L515.026,243.499 L515.486,245.556 C516.741,247.325 514.684,246.352 514.684,246.352 L512.007,246.352 L511.318,246.962 L522.175,251.883 L523.543,252.871 L528.79,253.256 L553.887,265.192 L553.678,268.638 L556.377,268.313 L558.028,269.168 L558.257,267.965 L559.23,267.057 L559.796,267.169 L564.017,263.75 L537.761,251.386 L537.761,248.768 L539.759,249.697 L637.116,167.381 L637.416,164.854 L695.533,187.215 L694.913,189.79 L599.741,280.062 L572,267.57 L571.487,267.57 L562.591,274.927 L562.591,277.492 L561.623,278.288 L556.719,276.178 L553.251,275.879 L553.203,276.675 L551.984,278.726 L551.984,280.281 L554.8,282.338 C554.8,282.338 555.709,283.215 555.255,283.898 L553.427,285.763 C553.427,285.763 554.8,287.318 553.887,288.766 L549.398,292.795 L575.863,305.949 L574.874,308.69 L443.332,433.954 L416.339,417.279 L403.585,409.397 L377.895,393.523 L377.895,390.472 L379.974,391.744 L495.946,292.437 L496.133,287.927 L497.426,286.789 L496.363,286.18 L496.667,280.858 L498.222,279.64 L496.95,278.972 L497.351,273.554 L500.541,271.048 L504.19,272.758 L504.19,267.853 L505.125,267.185 L472.81,251.674 L472.217,261.009 L470.39,262.681 L452.293,253.71 L452.293,253.256 L452.779,242.057 L448.472,239.989 C446.757,242.553 444.38,244.114 441.772,243.163 L441.783,243.168 L440.602,244.413 L437.807,244.413 C437.102,245.535 436.477,246.256 436.477,246.256 C437.236,247.779 437.54,249.681 436.905,251.808 C436.685,252.55 436.231,253.272 435.654,253.897 C436.814,255.003 437.54,256.563 437.54,258.294 C437.54,260.367 436.504,262.2 434.917,263.295 C436.023,264.968 436.253,267.094 436.253,267.094 L436.327,277.818 L437.54,280.858 C437.54,280.858 437.77,284.508 431.46,285.042 C423.552,285.042 423.835,279.945 423.835,279.945 L425.374,277.513 L426.143,267.778 C426.261,265.614 426.998,264.177 427.885,263.21 C426.368,262.104 425.374,260.319 425.374,258.294 C425.374,256.563 426.101,255.003 427.266,253.897 C426.715,253.256 426.309,252.444 426.143,251.439 C425.625,248.174 427.03,245.423 427.03,245.423 C426.63,245.043 424.466,240.555 424.615,237.665 C424.653,236.911 424.717,235.965 424.786,234.988 L416.195,230.836 C414.902,230.211 414.228,228.832 414.031,227.107 C413.747,227.16 413.464,227.187 413.17,227.192 C412.716,227.913 412.096,228.576 411.29,229.153 L392.653,242.431 C394.518,241.816 396.65,241.469 398.915,241.469 C406.182,241.469 412.07,245.043 412.07,249.451 L412.07,263.995 C412.07,265.395 411.477,266.71 410.435,267.853 L414.853,270.135 L414.923,270.172 C419.764,272.496 417.552,281.617 413.288,287.922 L413.288,289.242 L414.506,289.765 L416.082,288.558 L419.219,289.926 L425.834,284.679 L429.654,286.842 L429.654,287.302 L434.329,289.583 L434.329,290.438 L439.346,292.378 L439.346,294.318 L443.054,296.31 L443.054,300.874 L438.78,304.411 L438.267,304.411 L438.208,305.266 L426.859,314.621 L424.466,313.307 L423.867,313.991 L423.867,316.502 L417.108,322.145 L413.17,319.922 L413.229,318.725 L414.367,317.245 L414.485,316.785 L412.545,318.554 L408.725,316.556 L408.666,314.563 L407.181,315.701 L403.478,313.761 L403.478,311.709 L401.25,313.419 L397.43,311.309 L397.43,306.863 L404.675,301.333 L404.675,297.336 L408.875,294.104 L407.528,293.511 C405.947,294.296 404.36,294.451 402.917,293.676 L358.751,270.033 C357.901,269.579 357.265,268.932 356.806,268.152 L355.7,268.89 C353.29,270.509 350.287,269.814 347.477,267.885 L344.96,270.135 L341.273,272.758 C341.273,272.758 338.308,273.672 336.181,271.048 C334.253,268.676 334.14,266.651 334.776,265.833 C334.846,265.748 334.921,265.668 335.001,265.609 L337.854,263.595 L339.088,260.351 C338.543,260.245 337.993,260.052 337.453,259.769 L316.823,248.858 C314.553,247.629 313.671,245.396 313.746,242.788 L308.274,239.834 L308.274,236.029 L312.57,233.027 L316.107,234.993 C319.206,229.222 324.71,224.424 328.605,226.428 L349.796,237.184 C350.977,237.782 351.703,238.888 352.061,240.304 L363.976,232.332 C364.666,231.873 365.419,231.638 366.21,231.584 C366.53,230.996 366.974,230.494 367.546,230.099 L376.511,223.917 L374.582,222.875 L374.502,223.826 L373.172,224.585 L368.571,222.153 L368.571,219.872 L362.373,216.757 L361.043,217.478 L360.348,217.072 L360.439,215.079 L362.149,214.283 L362.908,214.513 L369.49,210.217 C369.159,210.094 368.812,209.923 368.459,209.683 L365.724,209.57 C365.724,209.57 363.837,208.828 364.297,206.434 L365.552,206.375 L361.214,201.812 L360.359,201.24 L359.28,201.187 L358.537,200.444 L356.427,200.386 C356.427,200.386 354.487,199.643 355.625,197.532 L354.428,197.532 C354.428,197.532 352.489,196.453 353.119,194.342 L353.418,194.038 L352.911,193.792 L347.386,191.121 L345.836,192.04 L345.836,199.114 L344.773,201.166 L329.412,193.792 L328.915,182.208 L325.575,180.595 L323.711,181.813 L325.153,182.497 L325.383,187.669 L324.09,188.583 L325.533,189.229 L325.725,194.321 L322.492,196.49 L317.358,193.792 L315.039,195.31 L315.648,195.465 L315.84,200.674 L312.645,202.689 L307.398,200.028 L305.533,201.203 L304.203,200.482 L304.053,196.907 L301.125,195.539 L300.896,190.442 L302.381,189.454 L300.708,188.428 L300.367,188.732 L300.367,191.548 L297.016,193.488 L291.962,190.976 L288.959,192.724 L288.542,192.51 L287.361,200.407 L289.718,206.717 L288.505,215.079 L276.793,208.844 L277.781,200.557 L275.425,194.097 L276.563,186.034 L274.132,179.115 L275.345,170.747 L272.764,164.133 L273.207,156.203 L270.707,154.99 L270.707,156.984 L237.307,175.903 L239.455,180.712 L238.317,188.77 L227.364,183.068 L227.481,181.471 L127.431,238.14 L110.237,227.555 L102.035,222.506 L85.696,212.45 L85.696,209.528 L88.24,211.098 L222.042,140.227 L222.042,131.443 L217.329,129.183 L217.329,131.059 L74.08,205.301 L58.569,195.748 L50.961,191.067 L36,181.85 L36,179.189 L38.41,180.669 L178.549,112.048 L178.549,109.537 L194.365,117.215 L196.037,118.508 L204.703,114.025 L206.264,113.816 L209.742,114.1 L211.473,115.238 L219.071,111.476 L206.264,105.476 L206.264,102.462 L208.46,103.493 L316.658,50.095 L316.791,48 z M522.234,304.112 L405.685,407.533 L418.444,415.366 L519.461,323.614 L520.733,317.662 L520.123,310.817 L522.234,304.112 z M540.545,294.488 L539.134,302.909 L539.407,305.495 L549.559,296.273 L547.117,295.076 C547.117,295.076 545.236,297.513 542.148,295.76 C541.4,295.338 540.892,294.905 540.545,294.488 z M547.277,284.166 L545.824,285.341 L543.281,284.166 L541.945,286.105 L541.443,289.124 L541.646,289.22 L547.347,284.203 L547.277,284.166 z M524.532,277.289 L524.532,277.626 L524.558,277.642 L524.532,277.289 z M659.867,176.203 L563.798,261.26 L564.931,262.686 L566.128,261.922 C567.154,261.351 568.639,261.922 568.639,261.922 C571.717,263.461 571.775,266.143 571.775,266.143 L573.084,265.401 L575.841,266.635 L671.093,180.557 L659.867,176.203 z M386.498,246.812 L381.267,250.541 C380.797,250.873 380.305,251.102 379.803,251.252 C379.723,251.466 379.637,251.68 379.541,251.883 L385.76,255.099 L385.76,249.451 C385.76,248.527 386.022,247.64 386.498,246.812 z M516.447,202.635 L513.156,202.811 L504.153,208.315 L495.941,216.148 L485.826,222.533 L478.378,229.607 L476.294,230.868 L478.175,231.75 L485.297,225.423 L495.412,219.338 L503.319,211.66 L513.129,205.729 L516.447,202.635 z M224.676,155.888 L104.552,221.138 L112.738,226.177 L226.225,163.534 L226.605,160.713 L224.676,155.888 z M456.279,201.641 L453.821,202.149 L453.719,206.204 L442.328,206.044 C442.686,206.557 442.883,207.113 442.883,207.69 L442.883,215.191 L453.719,220.273 L454.425,203.982 L456.225,203.479 L456.279,201.641 z M492.622,203.917 L488.006,204.163 L487.119,204.74 L478.608,212.798 L475.14,215.111 L475.038,216.714 L478.527,215.079 L486.59,207.551 L492.622,203.917 z M463.551,202.635 L458.245,203.741 L463.278,206.151 L465.586,205.216 C464.39,204.665 463.759,204.153 463.759,204.152 L463.551,202.635 z M533.775,186.75 L531.146,189.149 L521.721,194.93 L519.114,197.388 L519.06,200.204 L520.882,198.505 L530.388,192.953 L535.902,187.674 L533.775,186.75 z M193.841,119.555 L53.37,189.86 L60.979,194.524 L201.631,123.21 L201.054,122.921 L199.077,123.755 C199.077,123.755 196.112,124.059 195.353,120.298 L193.841,119.555 z M489.93,165.532 L488.449,166.377 L486.868,167.493 L493.13,170.063 L492.446,181.775 L491.607,182.385 L482.941,178.591 C483.299,179.222 483.491,179.895 483.491,180.595 L482.668,183.031 L481.781,185.671 L481.215,192.056 L484.795,191.938 L487.424,189.379 L488.396,188.807 L488.567,187.557 L490.667,187.482 L498.073,183.143 L506.055,175.391 L507.124,174.755 L488.642,166.948 L488.642,166.414 L489.93,165.532 z M519.343,180.493 L515.635,184.057 L511.398,186.75 L516.047,186.584 L521.491,181.423 L519.343,180.493 z M479.003,171.404 C478.367,172.714 477.32,173.788 476.021,174.45 C477.031,174.664 477.972,174.958 478.821,175.316 L479.003,171.404 z M357.794,169.759 L353.974,169.876 C353.974,169.876 353.873,169.86 353.75,169.802 L350.271,171.693 L350.277,171.752 L352.457,172.772 L357.682,170.197 C357.709,170.058 357.741,169.919 357.794,169.759 z M285.304,160.895 L285.577,167.606 L288.58,169.038 L291.887,167.098 L291.887,165.693 L292.897,164.651 L285.304,160.895 z M524.441,138.106 L523.527,138.507 L520.733,140.901 L517.083,141.419 C517.083,141.419 516.683,143.3 515.368,144.438 C515.368,144.438 515.347,144.449 515.304,144.47 C516.036,147.312 515.55,150.139 512.964,152.084 L501.513,160.638 L518.168,167.531 L524.077,161.627 L534.037,155.771 L535.993,153.917 L534.587,154.878 L524.27,138.908 L524.441,138.106 z M344.239,158.96 L343.859,159.228 L343.785,161.306 L343.87,161.338 L345.003,160.553 L344.96,160.237 C344.96,160.237 344.458,159.703 344.239,158.96 z M346.846,159.041 L346.766,159.334 L347.039,159.142 L346.846,159.041 z M245.09,144.797 L235.32,150.107 L235.88,151.437 L235.779,158.26 L253.092,148.699 L252.61,148.472 L250.937,149.231 C250.937,149.231 247.518,149.001 247.438,145.961 L245.09,144.797 z M247.261,143.524 L247.518,143.754 L247.625,143.695 L247.261,143.524 z M279.069,131.898 L274.297,134.51 L279.528,136.925 L281.089,135.958 L279.304,135.162 L279.069,131.898 z M211.473,117.674 L209.859,119.063 L209.972,122.552 L208.962,122.9 L205.922,121.51 L205.922,120.602 L203.491,121.703 L213.231,126.309 L212.691,118.588 L211.473,117.674 z M381.732,75.645 L300.89,119.94 L300.896,120.068 L303.898,121.553 L304.032,126.303 L304.737,125.913 L304.737,125.277 L308.119,123.338 L308.819,123.653 L389.773,78.798 L381.732,75.645 z M331.912,56.084 L223.693,110.627 L231.088,114.084 L339.243,58.959 L331.912,56.084 z" clip-path="url(#Clip_5)" filter="url(#Shadow_6)" fill="rgba(0,0,0,0.75)"/>
        <path d="M539.407,305.495 L539.134,302.909 L540.545,294.489 C540.892,294.905 541.4,295.338 542.148,295.76 C545.236,297.513 547.117,295.076 547.117,295.076 L549.559,296.273 L539.407,305.495 z M418.444,415.366 L405.685,407.533 L522.234,304.112 L520.124,310.817 L520.733,317.662 L519.461,323.614 L418.444,415.366 z M442.883,215.191 L442.883,207.69 C442.883,207.113 442.686,206.557 442.328,206.044 L453.719,206.204 L453.821,202.149 L456.279,201.641 L456.225,203.479 L454.425,203.982 L453.719,220.273 L442.883,215.191 z M385.76,249.451 L385.76,255.099 L379.541,251.883 C379.637,251.68 379.723,251.466 379.803,251.252 C380.305,251.102 380.797,250.873 381.267,250.541 L386.498,246.812 C386.022,247.64 385.76,248.527 385.76,249.451 M344.239,158.96 C344.458,159.703 344.96,160.237 344.96,160.237 L345.003,160.553 L343.87,161.338 L343.785,161.306 L343.86,159.228 L344.239,158.96 z M346.766,159.334 L346.846,159.041 L347.039,159.142 L346.766,159.334 z M353.974,169.876 L357.794,169.759 C357.741,169.919 357.709,170.058 357.682,170.197 L352.457,172.772 L350.277,171.752 L350.271,171.693 L353.75,169.802 C353.873,169.86 353.974,169.876 353.974,169.876 M512.964,152.084 C515.55,150.139 516.036,147.312 515.304,144.47 C515.347,144.449 515.368,144.438 515.368,144.438 C516.683,143.3 517.083,141.419 517.083,141.419 L520.733,140.901 L523.527,138.507 L524.441,138.106 L524.27,138.908 L534.587,154.878 L535.993,153.917 L534.037,155.771 L524.077,161.627 L518.168,167.531 L501.513,160.638 L512.964,152.084 z M530.388,192.953 L520.882,198.505 L519.06,200.204 L519.114,197.388 L521.721,194.93 L531.146,189.149 L533.775,186.75 L535.902,187.674 L530.388,192.953 z M463.551,202.635 L463.759,204.153 C463.759,204.153 464.39,204.665 465.586,205.216 L463.278,206.151 L458.245,203.741 L463.551,202.635 z M479.003,171.405 L478.821,175.316 C477.972,174.958 477.031,174.664 476.021,174.45 C477.32,173.788 478.367,172.714 479.003,171.405 M475.14,215.111 L478.608,212.798 L487.119,204.74 L488.006,204.163 L492.623,203.917 L486.59,207.551 L478.527,215.079 L475.038,216.714 L475.14,215.111 z M521.491,181.423 L516.047,186.584 L511.398,186.75 L515.635,184.057 L519.343,180.493 L521.491,181.423 z M488.45,166.377 L489.93,165.533 L488.642,166.414 L488.642,166.948 L507.124,174.755 L506.055,175.391 L498.073,183.143 L490.667,187.482 L488.567,187.557 L488.396,188.807 L487.424,189.379 L484.795,191.938 L481.215,192.056 L481.781,185.671 L482.668,183.031 L483.491,180.595 C483.491,179.895 483.299,179.222 482.941,178.591 L491.607,182.385 L492.446,181.776 L493.13,170.063 L486.868,167.493 L488.45,166.377 z M503.319,211.66 L495.412,219.338 L485.297,225.423 L478.175,231.75 L476.294,230.868 L478.378,229.607 L485.826,222.533 L495.941,216.148 L504.153,208.315 L513.156,202.811 L516.448,202.635 L513.129,205.729 L503.319,211.66 z M524.532,277.626 L524.532,277.289 L524.558,277.642 L524.532,277.626 z M547.277,284.166 L547.347,284.203 L541.646,289.22 L541.443,289.124 L541.945,286.105 L543.281,284.166 L545.824,285.341 L547.277,284.166 z M291.887,165.693 L291.887,167.098 L288.58,169.038 L285.577,167.606 L285.304,160.895 L292.897,164.651 L291.887,165.693 z M279.069,131.898 L279.304,135.162 L281.089,135.958 L279.528,136.925 L274.298,134.51 L279.069,131.898 z M381.732,75.645 L389.773,78.798 L308.819,123.653 L308.119,123.338 L304.737,125.277 L304.737,125.913 L304.032,126.303 L303.898,121.553 L300.896,120.068 L300.89,119.94 L381.732,75.645 z M247.261,143.524 L247.625,143.695 L247.518,143.754 L247.261,143.524 z M226.605,160.713 L226.226,163.534 L112.738,226.177 L104.552,221.138 L224.676,155.888 L226.605,160.713 z M60.979,194.524 L53.37,189.86 L193.841,119.555 L195.353,120.298 C196.112,124.059 199.077,123.755 199.077,123.755 L201.054,122.921 L201.631,123.21 L60.979,194.524 z M205.922,120.602 L205.922,121.511 L208.962,122.9 L209.972,122.552 L209.86,119.063 L211.473,117.674 L212.691,118.588 L213.231,126.309 L203.491,121.703 L205.922,120.602 z M331.912,56.084 L339.243,58.959 L231.088,114.084 L223.693,110.627 L331.912,56.084 z M563.798,261.26 L659.867,176.203 L671.093,180.557 L575.842,266.635 L573.084,265.401 L571.775,266.143 C571.775,266.143 571.717,263.461 568.639,261.922 C568.639,261.922 567.154,261.351 566.128,261.922 L564.931,262.686 L563.798,261.26 z M575.863,305.95 L549.398,292.795 L553.887,288.766 C554.8,287.318 553.427,285.763 553.427,285.763 L555.255,283.899 C555.709,283.215 554.8,282.338 554.8,282.338 L551.985,280.281 L551.985,278.726 L553.203,276.675 L553.251,275.879 L556.719,276.178 L561.624,278.288 L562.591,277.492 L562.591,274.927 L571.487,267.57 L572,267.57 L599.741,280.062 L694.913,189.79 L695.533,187.215 L637.416,164.854 L637.116,167.381 L539.76,249.697 L537.761,248.768 L537.761,251.386 L564.017,263.75 L559.796,267.169 L559.23,267.057 L558.257,267.965 L558.028,269.168 L556.377,268.313 L553.678,268.639 L553.887,265.192 L528.79,253.256 L523.543,252.871 L522.175,251.883 L511.318,246.962 L512.007,246.352 L514.684,246.352 C514.684,246.352 516.741,247.325 515.486,245.556 L515.026,243.499 L516.512,244.018 L517.367,243.157 L517.367,242.591 C517.367,242.591 520.332,243.959 522.555,241.618 C524.783,239.284 524.04,235.629 523.068,234.32 C522.101,233.011 520.391,234.037 520.391,234.037 L520.562,231.354 L519.648,230.841 L519.76,229.415 L520.273,228.961 L520.444,223.714 L519.194,223.254 L517.938,224.339 L515.197,224.569 L511.377,227.764 L511.323,230.328 L508.812,232.268 C508.812,232.268 504.762,230.9 505.735,234.603 L504.88,235.233 L503.624,235.517 L503.453,243.387 L503.448,243.387 L489.646,237.125 L494.423,234.015 L502.481,226.257 L512.291,220.326 L519.744,213.027 L529.25,207.252 L535.864,200.712 L537.232,188.251 L544.91,191.586 L555.938,182.614 L538.899,175.599 L539.663,167.632 L533.492,173.371 L530.564,172.169 L532.744,170.828 L540.123,163.828 L541.565,148.622 L538.312,151.715 L528.144,135.942 L528.144,135.483 C530.03,135.713 531.51,134.516 531.51,134.516 C534.192,132.405 533.278,128.868 531.51,126.191 C529.741,123.509 526.375,123.397 525.007,123.739 C523.639,124.081 522.555,126.191 522.555,126.191 L522.271,126.191 L511.719,109.649 L507.674,112.39 L518.392,129.21 L518.392,129.611 L514.572,132.261 L512.916,135.6 C511.5,135.21 510.554,135.392 510.004,135.616 L502.101,129.461 L501.177,129.002 C501.177,129.002 502.026,127.099 499.82,126.191 C499.82,126.191 498.233,126.111 498.078,126.72 C498.078,126.72 494.952,126.8 496.325,129.915 C497.693,132.272 499.975,130.22 499.975,130.22 L505.446,134.211 C504.34,134.029 503.293,134.184 502.406,134.778 L486.74,145.293 C484.752,146.629 483.833,148.643 483.705,150.871 L480.05,153.527 C480.061,153.446 480.066,153.393 480.066,153.393 L480.526,152.65 L480.526,152.42 L480.964,152.121 L480.526,151.934 L480.526,149.172 L479.5,148.718 C479.329,147.532 477.731,145.533 477.111,145.047 C476.561,144.55 475.487,144.213 474.253,144.213 C473.585,144.213 472.971,144.31 472.458,144.475 L472.597,142.958 L470.716,142.958 L470.433,145.576 L468.199,146.773 L452.827,140.334 L453.281,139.875 L430.012,130.22 L418.075,137.748 L441.494,147.783 L442.103,147.403 L468.092,158.544 L468.092,159.265 C468.482,160.692 469.615,161.947 470.149,162.476 C468.589,163.219 467.366,164.539 466.751,166.168 L466.559,166.04 L466.97,159.041 L454.537,153.719 L453.436,154.173 L453.057,165.581 L455.995,166.906 L436.637,180.563 L436.905,169.663 L434.34,179.125 L434.34,182.182 L433.255,182.946 L433.619,168.156 L431.054,177.624 L431.054,189.934 C430.723,190.063 430.407,190.223 430.103,190.405 L427.928,190.474 L429.713,183.165 L430.108,166.911 L427.543,176.379 L427.543,190.485 L423.552,190.613 L423.552,189.609 L421.725,188.62 C421.041,186.568 418.839,186.643 418.839,186.643 L417.162,186.793 L410.926,183.827 L403.702,182.689 L402.49,184.891 L397.168,185.959 L397.168,187.327 L399.449,188.695 L399.449,191.586 L401.122,192.419 L401.122,195.593 L370.853,181.396 L366.247,179.238 L370.324,176.224 L380.588,170.747 L389.03,164.512 L399.065,159.65 L406.898,153.564 L416.173,148.622 L416.553,135.013 L407.053,139.65 L398.915,145.656 L388.95,150.449 L380.588,156.684 L370.244,161.776 L361.604,168.167 C362.053,166.783 361.102,165.826 361.102,165.826 L361.048,165.826 L361.503,165.581 L370.244,158.966 L380.663,153.868 L389.105,147.483 L399.139,142.156 L407.127,136.226 L416.553,131.513 L416.937,117.295 L407.053,122.157 L399.065,128.393 L388.95,133.26 L380.358,139.57 L370.094,144.742 L361.348,151.133 L350.704,156.604 L348.391,158.207 C348.385,158.159 348.385,158.127 348.385,158.127 L347.701,157.785 L347.701,156.813 L349.048,155.52 L350.4,154.552 L361.428,148.622 L370.094,141.932 L380.663,136.455 L389.03,129.915 L399.139,124.898 L407.352,118.588 L416.937,113.491 L416.937,99.192 L407.277,104.06 L399.065,110.376 L388.8,115.468 L380.134,122.082 L369.56,127.404 L360.589,134.099 L349.79,139.57 L340.515,146.19 L334.814,147.329 L330.021,145.122 L327.36,145.806 L328.023,161.322 L318.613,156.909 L318.688,156.38 L313.521,153.943 L313.099,153.756 L313.099,151.015 L316.674,148.851 L320.174,150.524 L323.444,148.509 L323.251,143.107 L321.504,142.311 L323.176,141.323 L322.909,135.958 L321.087,135.125 L322.76,134.136 L322.728,132.956 L406.342,85.306 L406.614,83.19 L365.665,67.16 L365.665,69.335 L257.771,126.886 L255.768,125.961 L255.768,128.243 L275.249,137.369 L271.546,137.369 L264.017,140.863 L264.589,151.373 L255.426,146.949 L259.684,144.668 C259.876,144.01 259.946,143.417 259.925,142.883 L260.598,142.536 L260.598,130.524 L244.654,123.071 L244.675,122.531 L354.653,65.012 L354.941,63.057 L316.791,48 L316.658,50.095 L208.46,103.494 L206.264,102.462 L206.264,105.476 L219.071,111.476 L211.473,115.238 L209.742,114.1 L206.264,113.816 L204.703,114.025 L196.037,118.508 L194.365,117.215 L178.549,109.537 L178.549,112.048 L38.41,180.67 L36,179.189 L36,181.85 L50.961,191.067 L58.569,195.748 L74.08,205.301 L217.329,131.059 L217.329,129.183 L222.042,131.443 L222.042,140.228 L88.24,211.099 L85.696,209.528 L85.696,212.45 L102.036,222.506 L110.237,227.555 L127.431,238.14 L227.481,181.471 L227.364,183.069 L238.317,188.77 L239.455,180.712 L237.307,175.903 L270.707,156.984 L253.096,148.696 L235.779,158.261 L235.881,151.437 L235.32,150.107 L245.092,144.796 L233.743,139.17 L247.438,145.961 C247.518,149.001 250.937,149.231 250.937,149.231 L252.61,148.472 L270.707,156.984 L270.707,154.991 L273.208,156.203 L272.764,164.133 L275.345,170.747 L274.132,179.115 L276.563,186.034 L275.425,194.097 L277.781,200.557 L276.793,208.844 L288.505,215.079 L289.718,206.717 L287.361,200.407 L288.542,192.51 L288.959,192.724 L291.962,190.976 L297.016,193.488 L300.367,191.548 L300.367,188.732 L300.709,188.428 L302.381,189.454 L300.896,190.442 L301.125,195.539 L304.053,196.907 L304.203,200.482 L305.533,201.203 L307.398,200.028 L312.645,202.689 L315.84,200.674 L315.648,195.465 L315.039,195.31 L317.358,193.792 L322.492,196.491 L325.725,194.321 L325.533,189.229 L324.09,188.583 L325.383,187.669 L325.153,182.497 L323.711,181.813 L325.575,180.595 L328.915,182.208 L329.412,193.792 L344.773,201.166 L345.837,199.114 L345.837,192.04 L347.386,191.121 L352.911,193.792 L353.418,194.038 L353.119,194.343 C352.489,196.453 354.428,197.532 354.428,197.532 L355.625,197.532 C354.487,199.643 356.427,200.386 356.427,200.386 L358.537,200.444 L359.28,201.187 L360.359,201.241 L361.214,201.812 L365.553,206.375 L364.297,206.434 C363.837,208.828 365.724,209.57 365.724,209.57 L368.459,209.683 C368.812,209.923 369.159,210.094 369.49,210.217 L362.908,214.513 L362.149,214.283 L360.439,215.079 L360.348,217.072 L361.043,217.478 L362.373,216.757 L368.571,219.872 L368.571,222.153 L373.172,224.585 L374.502,223.826 L374.582,222.875 L376.511,223.917 L367.546,230.099 C366.974,230.494 366.53,230.996 366.21,231.584 C365.419,231.638 364.666,231.873 363.976,232.332 L352.061,240.304 C351.703,238.888 350.977,237.782 349.796,237.184 L328.605,226.428 C324.71,224.424 319.206,229.222 316.107,234.993 L312.57,233.027 L308.274,236.03 L308.274,239.834 L313.746,242.789 C313.671,245.396 314.553,247.629 316.823,248.858 L337.453,259.769 C337.993,260.052 338.543,260.245 339.088,260.351 L337.854,263.595 L335.001,265.609 C334.921,265.668 334.846,265.748 334.776,265.833 C334.14,266.651 334.253,268.676 336.181,271.048 C338.308,273.672 341.273,272.758 341.273,272.758 L344.96,270.135 L347.477,267.885 C350.287,269.814 353.29,270.509 355.7,268.89 L356.806,268.152 C357.265,268.932 357.901,269.579 358.751,270.033 L402.917,293.676 C404.36,294.451 405.947,294.296 407.528,293.511 L408.875,294.104 L404.675,297.336 L404.675,301.333 L397.43,306.863 L397.43,311.309 L401.25,313.419 L403.478,311.709 L403.478,313.761 L407.181,315.701 L408.666,314.563 L408.725,316.556 L412.545,318.554 L414.485,316.785 L414.367,317.245 L413.229,318.725 L413.17,319.922 L417.108,322.145 L423.867,316.502 L423.867,313.991 L424.466,313.307 L426.859,314.621 L438.208,305.266 L438.267,304.411 L438.78,304.411 L443.054,300.874 L443.054,296.311 L439.346,294.318 L439.346,292.378 L434.329,290.438 L434.329,289.584 L429.654,287.302 L429.654,286.843 L425.834,284.679 L419.219,289.926 L416.082,288.558 L414.506,289.765 L413.288,289.242 L413.288,287.922 C417.552,281.617 419.764,272.496 414.923,270.172 L414.854,270.135 L410.435,267.853 C411.477,266.71 412.07,265.395 412.07,263.995 L412.07,249.451 C412.07,245.043 406.182,241.469 398.915,241.469 C396.65,241.469 394.518,241.816 392.653,242.431 L411.29,229.153 C412.096,228.576 412.716,227.913 413.17,227.192 C413.464,227.187 413.747,227.16 414.031,227.107 C414.228,228.832 414.902,230.211 416.195,230.836 L424.786,234.988 C424.717,235.965 424.653,236.911 424.615,237.665 C424.466,240.555 426.63,245.043 427.03,245.423 C427.03,245.423 425.625,248.174 426.144,251.439 C426.309,252.444 426.715,253.256 427.266,253.897 C426.101,255.003 425.374,256.563 425.374,258.294 C425.374,260.319 426.368,262.104 427.885,263.21 C426.998,264.177 426.261,265.614 426.144,267.778 L425.374,277.513 L423.835,279.945 C423.835,279.945 423.552,285.042 431.46,285.042 C437.77,284.508 437.54,280.858 437.54,280.858 L436.327,277.818 L436.253,267.094 C436.253,267.094 436.023,264.968 434.917,263.295 C436.504,262.2 437.54,260.367 437.54,258.294 C437.54,256.563 436.814,255.003 435.654,253.897 C436.231,253.272 436.685,252.55 436.905,251.808 C437.54,249.681 437.236,247.779 436.477,246.256 C436.477,246.256 437.102,245.535 437.808,244.413 L440.602,244.413 L441.783,243.168 L441.772,243.163 C444.38,244.114 446.757,242.553 448.472,239.989 L452.779,242.057 L452.293,253.256 L452.293,253.71 L470.39,262.681 L472.217,261.009 L472.81,251.674 L505.125,267.185 L504.19,267.853 L504.19,272.758 L500.541,271.048 L497.351,273.554 L496.95,278.972 L498.222,279.64 L496.667,280.858 L496.363,286.18 L497.426,286.789 L496.133,287.927 L495.946,292.437 L379.974,391.744 L377.895,390.472 L377.895,393.523 L403.585,409.398 L416.339,417.279 L443.332,433.955 L574.874,308.691 L575.863,305.95 z" fill="url(#Gradient_3)"/>
      </g>
    </g>
    <g>
      <path d="M328.725,351.071 Q332.944,351.071 335.358,352.067 Q337.772,353.063 338.769,355.219 Q339.765,357.375 339.765,360.938 Q339.765,363.188 339.753,364.758 Q339.741,366.328 339.718,368.25 Q339.718,370.055 340.315,372.012 Q340.913,373.969 340.913,374.532 Q340.913,375.516 339.987,376.325 Q339.062,377.133 337.89,377.133 Q336.905,377.133 335.944,376.207 Q334.983,375.282 333.905,373.524 Q331.585,375.328 329.417,376.231 Q327.249,377.133 324.554,377.133 Q322.093,377.133 320.229,376.16 Q318.366,375.188 317.358,373.524 Q316.351,371.86 316.351,369.914 Q316.351,367.289 318.015,365.438 Q319.679,363.586 322.585,362.953 Q323.194,362.813 325.608,362.321 Q328.022,361.828 329.745,361.418 Q331.468,361.008 333.483,360.422 Q333.366,357.891 332.464,356.707 Q331.562,355.524 328.726,355.524 Q326.288,355.524 325.058,356.203 Q323.827,356.883 322.948,358.242 Q322.069,359.602 321.706,360.035 Q321.343,360.469 320.147,360.469 Q319.069,360.469 318.284,359.778 Q317.499,359.086 317.499,358.008 Q317.499,356.321 318.694,354.727 Q319.89,353.133 322.421,352.102 Q324.952,351.071 328.726,351.071 z M333.483,364.266 Q332.077,364.782 329.394,365.356 Q326.71,365.93 325.679,366.2 Q324.647,366.469 323.71,367.254 Q322.772,368.039 322.772,369.446 Q322.772,370.899 323.874,371.918 Q324.976,372.938 326.757,372.938 Q328.655,372.938 330.261,372.106 Q331.866,371.274 332.616,369.961 Q333.483,368.508 333.483,365.18 L333.483,364.266 z M304.983,342.422 Q306.202,342.422 307.187,343.336 Q307.843,343.946 308.019,344.825 Q308.194,345.703 308.194,347.321 L308.194,351.68 L310.538,351.68 Q311.897,351.68 312.612,352.325 Q313.327,352.969 313.327,353.977 Q313.327,355.266 312.308,355.782 Q311.288,356.297 309.39,356.297 L308.194,356.297 L308.194,368.063 Q308.194,369.563 308.3,370.371 Q308.405,371.18 308.862,371.684 Q309.319,372.188 310.351,372.188 Q310.913,372.188 311.874,371.989 Q312.835,371.789 313.374,371.789 Q314.147,371.789 314.769,372.41 Q315.39,373.032 315.39,373.946 Q315.39,375.492 313.702,376.313 Q312.015,377.133 308.851,377.133 Q305.851,377.133 304.304,376.125 Q302.757,375.117 302.276,373.336 Q301.796,371.555 301.796,368.578 L301.796,356.297 L300.952,356.297 Q299.569,356.297 298.843,355.641 Q298.116,354.985 298.116,353.977 Q298.116,352.969 298.878,352.325 Q299.64,351.68 301.093,351.68 L301.796,351.68 L301.796,347.836 Q301.796,346.289 301.878,345.41 Q301.96,344.532 302.335,343.899 Q302.71,343.242 303.413,342.832 Q304.116,342.422 304.983,342.422 z M284.405,351.071 Q288.624,351.071 291.038,352.067 Q293.452,353.063 294.448,355.219 Q295.444,357.375 295.444,360.938 Q295.444,363.188 295.433,364.758 Q295.421,366.328 295.397,368.25 Q295.397,370.055 295.995,372.012 Q296.593,373.969 296.593,374.532 Q296.593,375.516 295.667,376.325 Q294.741,377.133 293.569,377.133 Q292.585,377.133 291.624,376.207 Q290.663,375.282 289.585,373.524 Q287.265,375.328 285.097,376.231 Q282.929,377.133 280.233,377.133 Q277.772,377.133 275.909,376.16 Q274.046,375.188 273.038,373.524 Q272.03,371.86 272.03,369.914 Q272.03,367.289 273.694,365.438 Q275.358,363.586 278.265,362.953 Q278.874,362.813 281.288,362.321 Q283.702,361.828 285.425,361.418 Q287.147,361.008 289.163,360.422 Q289.046,357.891 288.144,356.707 Q287.241,355.524 284.405,355.524 Q281.968,355.524 280.737,356.203 Q279.507,356.883 278.628,358.242 Q277.749,359.602 277.386,360.035 Q277.022,360.469 275.827,360.469 Q274.749,360.469 273.964,359.778 Q273.179,359.086 273.179,358.008 Q273.179,356.321 274.374,354.727 Q275.569,353.133 278.101,352.102 Q280.632,351.071 284.405,351.071 z M289.163,364.266 Q287.757,364.782 285.073,365.356 Q282.39,365.93 281.358,366.2 Q280.327,366.469 279.39,367.254 Q278.452,368.039 278.452,369.446 Q278.452,370.899 279.554,371.918 Q280.655,372.938 282.437,372.938 Q284.335,372.938 285.94,372.106 Q287.546,371.274 288.296,369.961 Q289.163,368.508 289.163,365.18 L289.163,364.266 z M263.968,341.602 Q265.421,341.602 266.206,342.528 Q266.991,343.453 266.991,345.258 L266.991,373.477 Q266.991,375.305 266.147,376.219 Q265.304,377.133 263.968,377.133 Q262.655,377.133 261.8,376.184 Q260.944,375.235 260.944,373.477 L260.944,372.844 Q259.655,374.321 258.401,375.246 Q257.147,376.172 255.683,376.653 Q254.218,377.133 252.483,377.133 Q250.187,377.133 248.229,376.16 Q246.272,375.188 244.843,373.383 Q243.413,371.578 242.675,369.141 Q241.937,366.703 241.937,363.867 Q241.937,357.867 244.866,354.516 Q247.796,351.164 252.577,351.164 Q255.343,351.164 257.241,352.114 Q259.14,353.063 260.944,355.032 L260.944,345.586 Q260.944,343.617 261.729,342.61 Q262.515,341.602 263.968,341.602 z M254.405,355.899 Q252.647,355.899 251.265,356.895 Q249.882,357.891 249.12,359.754 Q248.358,361.617 248.358,364.078 Q248.358,366.68 249.167,368.508 Q249.976,370.336 251.382,371.262 Q252.788,372.188 254.452,372.188 Q256.14,372.188 257.534,371.309 Q258.929,370.43 259.761,368.614 Q260.593,366.797 260.593,364.078 Q260.593,361.524 259.761,359.684 Q258.929,357.844 257.511,356.871 Q256.093,355.899 254.405,355.899 z M336.718,296.117 Q338.569,296.117 339.179,297.325 Q339.788,298.532 339.788,300.805 L339.788,319.391 Q339.788,322.578 339.108,324.875 Q338.429,327.172 336.929,328.672 Q335.429,330.172 333.003,330.899 Q330.577,331.625 326.968,331.625 Q323.663,331.625 321.062,330.7 Q318.46,329.774 317.054,328.309 Q315.647,326.844 315.647,325.297 Q315.647,324.125 316.444,323.387 Q317.241,322.649 318.366,322.649 Q319.772,322.649 320.827,323.891 Q321.343,324.524 321.894,325.168 Q322.444,325.813 323.112,326.27 Q323.78,326.727 324.718,326.95 Q325.655,327.172 326.874,327.172 Q329.358,327.172 330.729,326.481 Q332.101,325.789 332.651,324.547 Q333.202,323.305 333.296,321.887 Q333.39,320.469 333.437,317.328 Q331.96,319.391 330.026,320.469 Q328.093,321.547 325.421,321.547 Q322.21,321.547 319.808,319.907 Q317.405,318.266 316.116,315.313 Q314.827,312.36 314.827,308.492 Q314.827,305.61 315.612,303.289 Q316.397,300.969 317.851,299.375 Q319.304,297.782 321.202,296.973 Q323.101,296.164 325.374,296.164 Q328.093,296.164 330.085,297.207 Q332.077,298.25 333.788,300.477 L333.788,299.61 Q333.788,297.946 334.608,297.032 Q335.429,296.117 336.718,296.117 z M327.296,300.899 Q324.554,300.899 322.901,302.985 Q321.249,305.071 321.249,308.914 Q321.249,312.805 322.948,314.797 Q324.647,316.789 327.343,316.789 Q328.937,316.789 330.354,315.934 Q331.772,315.078 332.663,313.356 Q333.554,311.633 333.554,309.172 Q333.554,305.258 331.831,303.078 Q330.108,300.899 327.296,300.899 z M301.374,296.117 Q303.905,296.117 305.897,297.219 Q307.89,298.321 308.874,300.336 Q309.507,301.508 309.694,302.867 Q309.882,304.227 309.882,306.336 L309.882,318.242 Q309.882,320.164 309.003,321.149 Q308.124,322.133 306.718,322.133 Q305.288,322.133 304.397,321.125 Q303.507,320.117 303.507,318.242 L303.507,307.578 Q303.507,304.414 302.628,302.739 Q301.749,301.063 299.124,301.063 Q297.413,301.063 296.007,302.082 Q294.601,303.102 293.944,304.883 Q293.476,306.313 293.476,310.227 L293.475,318.242 Q293.476,320.188 292.573,321.16 Q291.671,322.133 290.241,322.133 Q288.858,322.133 287.968,321.125 Q287.077,320.117 287.077,318.242 L287.077,299.75 Q287.077,297.922 287.874,297.02 Q288.671,296.117 290.054,296.117 Q290.897,296.117 291.577,296.516 Q292.257,296.914 292.667,297.711 Q293.077,298.508 293.077,299.657 L293.077,300.43 Q294.765,298.203 296.769,297.16 Q298.772,296.117 301.374,296.117 z M277.421,296.117 Q278.827,296.117 279.741,297.078 Q280.655,298.039 280.655,299.75 L280.655,318.242 Q280.655,320.164 279.741,321.149 Q278.827,322.133 277.421,322.133 Q276.015,322.133 275.136,321.125 Q274.257,320.117 274.257,318.242 L274.257,299.938 Q274.257,298.039 275.136,297.078 Q276.015,296.117 277.421,296.117 z M264.811,286.602 Q266.265,286.602 267.05,287.528 Q267.835,288.453 267.835,290.258 L267.835,318.477 Q267.835,320.305 266.991,321.219 Q266.147,322.133 264.812,322.133 Q263.499,322.133 262.644,321.184 Q261.788,320.235 261.788,318.477 L261.788,317.844 Q260.499,319.321 259.245,320.246 Q257.991,321.172 256.526,321.653 Q255.062,322.133 253.327,322.133 Q251.03,322.133 249.073,321.16 Q247.116,320.188 245.687,318.383 Q244.257,316.578 243.519,314.141 Q242.78,311.703 242.78,308.867 Q242.78,302.867 245.71,299.516 Q248.64,296.164 253.421,296.164 Q256.187,296.164 258.085,297.114 Q259.983,298.063 261.788,300.032 L261.788,290.586 Q261.788,288.617 262.573,287.61 Q263.358,286.602 264.812,286.602 z M255.249,300.899 Q253.491,300.899 252.108,301.895 Q250.726,302.891 249.964,304.754 Q249.202,306.617 249.202,309.078 Q249.202,311.68 250.011,313.508 Q250.819,315.336 252.226,316.262 Q253.632,317.188 255.296,317.188 Q256.983,317.188 258.378,316.309 Q259.772,315.43 260.604,313.614 Q261.437,311.797 261.437,309.078 Q261.437,306.524 260.604,304.684 Q259.772,302.844 258.354,301.871 Q256.937,300.899 255.249,300.899 z M226.725,296.071 Q230.944,296.071 233.358,297.067 Q235.772,298.063 236.769,300.219 Q237.765,302.375 237.765,305.938 Q237.765,308.188 237.753,309.758 Q237.741,311.328 237.718,313.25 Q237.718,315.055 238.315,317.012 Q238.913,318.969 238.913,319.532 Q238.913,320.516 237.987,321.325 Q237.062,322.133 235.89,322.133 Q234.905,322.133 233.944,321.207 Q232.983,320.282 231.905,318.524 Q229.585,320.328 227.417,321.231 Q225.249,322.133 222.554,322.133 Q220.093,322.133 218.229,321.16 Q216.366,320.188 215.358,318.524 Q214.351,316.86 214.351,314.914 Q214.351,312.289 216.015,310.438 Q217.679,308.586 220.585,307.953 Q221.194,307.813 223.608,307.321 Q226.022,306.828 227.745,306.418 Q229.468,306.008 231.483,305.422 Q231.366,302.891 230.464,301.707 Q229.562,300.524 226.726,300.524 Q224.288,300.524 223.058,301.203 Q221.827,301.883 220.948,303.242 Q220.069,304.602 219.706,305.035 Q219.343,305.469 218.147,305.469 Q217.069,305.469 216.284,304.778 Q215.499,304.086 215.499,303.008 Q215.499,301.321 216.694,299.727 Q217.89,298.133 220.421,297.102 Q222.952,296.071 226.726,296.071 z M231.483,309.266 Q230.077,309.782 227.394,310.356 Q224.71,310.93 223.679,311.2 Q222.647,311.469 221.71,312.254 Q220.772,313.039 220.772,314.446 Q220.772,315.899 221.874,316.918 Q222.976,317.938 224.757,317.938 Q226.655,317.938 228.261,317.106 Q229.866,316.274 230.616,314.961 Q231.483,313.508 231.483,310.18 L231.483,309.266 z M197.921,296.117 Q200.827,296.117 203.194,297.055 Q205.562,297.992 207.249,299.727 Q208.937,301.461 209.815,303.852 Q210.694,306.242 210.694,309.125 Q210.694,311.985 209.804,314.399 Q208.913,316.813 207.226,318.547 Q205.538,320.282 203.194,321.207 Q200.851,322.133 197.921,322.133 Q195.015,322.133 192.694,321.196 Q190.374,320.258 188.675,318.512 Q186.976,316.766 186.097,314.387 Q185.218,312.008 185.218,309.125 Q185.218,306.219 186.108,303.805 Q186.999,301.391 188.663,299.68 Q190.327,297.969 192.694,297.043 Q195.062,296.117 197.921,296.117 z M197.921,300.852 Q196.046,300.852 194.616,301.825 Q193.187,302.797 192.413,304.696 Q191.64,306.594 191.64,309.125 Q191.64,311.633 192.401,313.508 Q193.163,315.383 194.581,316.379 Q195.999,317.375 197.921,317.375 Q200.827,317.375 202.55,315.184 Q204.272,312.992 204.272,309.125 Q204.272,305.211 202.55,303.032 Q200.827,300.852 197.921,300.852 z M176.897,286.602 Q178.351,286.602 179.241,287.575 Q180.132,288.547 180.132,290.492 L180.132,318.242 Q180.132,320.188 179.229,321.16 Q178.327,322.133 176.897,322.133 Q175.491,322.133 174.612,321.125 Q173.733,320.117 173.733,318.242 L173.733,290.492 Q173.733,288.571 174.589,287.586 Q175.444,286.602 176.897,286.602 z M277.491,286.883 Q278.733,286.883 279.694,287.68 Q280.655,288.477 280.655,290 Q280.655,291.477 279.718,292.309 Q278.78,293.141 277.491,293.141 Q276.155,293.141 275.206,292.321 Q274.257,291.5 274.257,290 Q274.257,288.641 275.229,287.762 Q276.202,286.883 277.491,286.883 z" clip-path="url(#Clip_7)" filter="url(#Shadow_8)" fill="rgba(0,0,0,0.75)"/>
      <text transform="matrix(1, 0, 0, 1, 205.801, 352.73)">
        <tspan x="-35.372" y="-31.183" font-family="ArialRoundedMTBold" font-size="48" fill="#0022EE">loading</tspan>
        <tspan x="34.307" y="23.817" font-family="ArialRoundedMTBold" font-size="48" fill="#0022EE">data</tspan>
      </text>
      <path d="M173.733,318.242 L173.733,290.492 Q173.733,288.571 174.589,287.586 Q175.444,286.602 176.897,286.602 Q178.351,286.602 179.241,287.575 Q180.132,288.547 180.132,290.492 L180.132,318.242 Q180.132,320.188 179.229,321.16 Q178.327,322.133 176.897,322.133 Q175.491,322.133 174.612,321.125 Q173.733,320.117 173.733,318.242 z M210.694,309.125 Q210.694,311.985 209.804,314.399 Q208.913,316.813 207.226,318.547 Q205.538,320.282 203.194,321.207 Q200.851,322.133 197.921,322.133 Q195.015,322.133 192.694,321.196 Q190.374,320.258 188.675,318.512 Q186.976,316.766 186.097,314.387 Q185.218,312.008 185.218,309.125 Q185.218,306.219 186.108,303.805 Q186.999,301.391 188.663,299.68 Q190.327,297.969 192.694,297.043 Q195.062,296.117 197.921,296.117 Q200.827,296.117 203.194,297.055 Q205.562,297.992 207.249,299.727 Q208.937,301.461 209.815,303.852 Q210.694,306.242 210.694,309.125 z M204.272,309.125 Q204.272,305.211 202.55,303.032 Q200.827,300.852 197.921,300.852 Q196.046,300.852 194.616,301.825 Q193.187,302.797 192.413,304.696 Q191.64,306.594 191.64,309.125 Q191.64,311.633 192.401,313.508 Q193.163,315.383 194.581,316.379 Q195.999,317.375 197.921,317.375 Q200.827,317.375 202.55,315.184 Q204.272,312.992 204.272,309.125 z M231.905,318.524 Q229.585,320.328 227.417,321.231 Q225.249,322.133 222.554,322.133 Q220.093,322.133 218.229,321.16 Q216.366,320.188 215.358,318.524 Q214.351,316.86 214.351,314.914 Q214.351,312.289 216.015,310.438 Q217.679,308.586 220.585,307.953 Q221.194,307.813 223.608,307.321 Q226.022,306.828 227.745,306.418 Q229.468,306.008 231.483,305.422 Q231.366,302.891 230.464,301.707 Q229.562,300.524 226.726,300.524 Q224.288,300.524 223.058,301.203 Q221.827,301.883 220.948,303.242 Q220.069,304.602 219.706,305.035 Q219.343,305.469 218.147,305.469 Q217.069,305.469 216.284,304.778 Q215.499,304.086 215.499,303.008 Q215.499,301.321 216.694,299.727 Q217.89,298.133 220.421,297.102 Q222.952,296.071 226.726,296.071 Q230.944,296.071 233.358,297.067 Q235.772,298.063 236.769,300.219 Q237.765,302.375 237.765,305.938 Q237.765,308.188 237.753,309.758 Q237.741,311.328 237.718,313.25 Q237.718,315.055 238.315,317.012 Q238.913,318.969 238.913,319.532 Q238.913,320.516 237.987,321.325 Q237.062,322.133 235.89,322.133 Q234.905,322.133 233.944,321.207 Q232.983,320.282 231.905,318.524 z M231.483,309.266 Q230.077,309.782 227.394,310.356 Q224.71,310.93 223.679,311.2 Q222.647,311.469 221.71,312.254 Q220.772,313.039 220.772,314.446 Q220.772,315.899 221.874,316.918 Q222.976,317.938 224.757,317.938 Q226.655,317.938 228.261,317.106 Q229.866,316.274 230.616,314.961 Q231.483,313.508 231.483,310.18 z M261.788,318.477 L261.788,317.844 Q260.499,319.321 259.245,320.246 Q257.991,321.172 256.526,321.653 Q255.062,322.133 253.327,322.133 Q251.03,322.133 249.073,321.16 Q247.116,320.188 245.687,318.383 Q244.257,316.578 243.519,314.141 Q242.78,311.703 242.78,308.867 Q242.78,302.867 245.71,299.516 Q248.64,296.164 253.421,296.164 Q256.187,296.164 258.085,297.114 Q259.983,298.063 261.788,300.032 L261.788,290.586 Q261.788,288.617 262.573,287.61 Q263.358,286.602 264.812,286.602 Q266.265,286.602 267.05,287.528 Q267.835,288.453 267.835,290.258 L267.835,318.477 Q267.835,320.305 266.991,321.219 Q266.147,322.133 264.812,322.133 Q263.499,322.133 262.644,321.184 Q261.788,320.235 261.788,318.477 z M249.202,309.078 Q249.202,311.68 250.011,313.508 Q250.819,315.336 252.226,316.262 Q253.632,317.188 255.296,317.188 Q256.983,317.188 258.378,316.309 Q259.772,315.43 260.604,313.614 Q261.437,311.797 261.437,309.078 Q261.437,306.524 260.604,304.684 Q259.772,302.844 258.354,301.871 Q256.937,300.899 255.249,300.899 Q253.491,300.899 252.108,301.895 Q250.726,302.891 249.964,304.754 Q249.202,306.617 249.202,309.078 z M280.655,299.75 L280.655,318.242 Q280.655,320.164 279.741,321.149 Q278.827,322.133 277.421,322.133 Q276.015,322.133 275.136,321.125 Q274.257,320.117 274.257,318.242 L274.257,299.938 Q274.257,298.039 275.136,297.078 Q276.015,296.117 277.421,296.117 Q278.827,296.117 279.741,297.078 Q280.655,298.039 280.655,299.75 z M277.491,293.141 Q276.155,293.141 275.206,292.321 Q274.257,291.5 274.257,290 Q274.257,288.641 275.229,287.762 Q276.202,286.883 277.491,286.883 Q278.733,286.883 279.694,287.68 Q280.655,288.477 280.655,290 Q280.655,291.477 279.718,292.309 Q278.78,293.141 277.491,293.141 z M293.077,299.657 L293.077,300.43 Q294.765,298.203 296.769,297.16 Q298.772,296.117 301.374,296.117 Q303.905,296.117 305.897,297.219 Q307.89,298.321 308.874,300.336 Q309.507,301.508 309.694,302.867 Q309.882,304.227 309.882,306.336 L309.882,318.242 Q309.882,320.164 309.003,321.149 Q308.124,322.133 306.718,322.133 Q305.288,322.133 304.397,321.125 Q303.507,320.117 303.507,318.242 L303.507,307.578 Q303.507,304.414 302.628,302.739 Q301.749,301.063 299.124,301.063 Q297.413,301.063 296.007,302.082 Q294.601,303.102 293.944,304.883 Q293.476,306.313 293.476,310.227 L293.476,318.242 Q293.476,320.188 292.573,321.16 Q291.671,322.133 290.241,322.133 Q288.858,322.133 287.968,321.125 Q287.077,320.117 287.077,318.242 L287.077,299.75 Q287.077,297.922 287.874,297.02 Q288.671,296.117 290.054,296.117 Q290.897,296.117 291.577,296.516 Q292.257,296.914 292.667,297.711 Q293.077,298.508 293.077,299.657 z M339.788,300.805 L339.788,319.391 Q339.788,322.578 339.108,324.875 Q338.429,327.172 336.929,328.672 Q335.429,330.172 333.003,330.899 Q330.577,331.625 326.968,331.625 Q323.663,331.625 321.062,330.7 Q318.46,329.774 317.054,328.309 Q315.647,326.844 315.647,325.297 Q315.647,324.125 316.444,323.387 Q317.241,322.649 318.366,322.649 Q319.772,322.649 320.827,323.891 Q321.343,324.524 321.894,325.168 Q322.444,325.813 323.112,326.27 Q323.78,326.727 324.718,326.95 Q325.655,327.172 326.874,327.172 Q329.358,327.172 330.729,326.481 Q332.101,325.789 332.651,324.547 Q333.202,323.305 333.296,321.887 Q333.39,320.469 333.437,317.328 Q331.96,319.391 330.026,320.469 Q328.093,321.547 325.421,321.547 Q322.21,321.547 319.808,319.907 Q317.405,318.266 316.116,315.313 Q314.827,312.36 314.827,308.492 Q314.827,305.61 315.612,303.289 Q316.397,300.969 317.851,299.375 Q319.304,297.782 321.202,296.973 Q323.101,296.164 325.374,296.164 Q328.093,296.164 330.085,297.207 Q332.077,298.25 333.788,300.477 L333.788,299.61 Q333.788,297.946 334.608,297.032 Q335.429,296.117 336.718,296.117 Q338.569,296.117 339.179,297.325 Q339.788,298.532 339.788,300.805 z M321.249,308.914 Q321.249,312.805 322.948,314.797 Q324.647,316.789 327.343,316.789 Q328.937,316.789 330.354,315.934 Q331.772,315.078 332.663,313.356 Q333.554,311.633 333.554,309.172 Q333.554,305.258 331.831,303.078 Q330.108,300.899 327.296,300.899 Q324.554,300.899 322.901,302.985 Q321.249,305.071 321.249,308.914 z M260.944,373.477 L260.944,372.844 Q259.655,374.321 258.401,375.246 Q257.147,376.172 255.683,376.653 Q254.218,377.133 252.483,377.133 Q250.187,377.133 248.229,376.16 Q246.272,375.188 244.843,373.383 Q243.413,371.578 242.675,369.141 Q241.937,366.703 241.937,363.867 Q241.937,357.867 244.866,354.516 Q247.796,351.164 252.577,351.164 Q255.343,351.164 257.241,352.114 Q259.14,353.063 260.944,355.032 L260.944,345.586 Q260.944,343.617 261.729,342.61 Q262.515,341.602 263.968,341.602 Q265.421,341.602 266.206,342.528 Q266.991,343.453 266.991,345.258 L266.991,373.477 Q266.991,375.305 266.147,376.219 Q265.304,377.133 263.968,377.133 Q262.655,377.133 261.8,376.184 Q260.944,375.235 260.944,373.477 z M248.358,364.078 Q248.358,366.68 249.167,368.508 Q249.976,370.336 251.382,371.262 Q252.788,372.188 254.452,372.188 Q256.14,372.188 257.534,371.309 Q258.929,370.43 259.761,368.614 Q260.593,366.797 260.593,364.078 Q260.593,361.524 259.761,359.684 Q258.929,357.844 257.511,356.871 Q256.093,355.899 254.405,355.899 Q252.647,355.899 251.265,356.895 Q249.882,357.891 249.12,359.754 Q248.358,361.617 248.358,364.078 z M289.585,373.524 Q287.265,375.328 285.097,376.231 Q282.929,377.133 280.233,377.133 Q277.772,377.133 275.909,376.16 Q274.046,375.188 273.038,373.524 Q272.03,371.86 272.03,369.914 Q272.03,367.289 273.694,365.438 Q275.358,363.586 278.265,362.953 Q278.874,362.813 281.288,362.321 Q283.702,361.828 285.425,361.418 Q287.147,361.008 289.163,360.422 Q289.046,357.891 288.144,356.707 Q287.241,355.524 284.405,355.524 Q281.968,355.524 280.737,356.203 Q279.507,356.883 278.628,358.242 Q277.749,359.602 277.386,360.035 Q277.022,360.469 275.827,360.469 Q274.749,360.469 273.964,359.778 Q273.179,359.086 273.179,358.008 Q273.179,356.321 274.374,354.727 Q275.569,353.133 278.101,352.102 Q280.632,351.071 284.405,351.071 Q288.624,351.071 291.038,352.067 Q293.452,353.063 294.448,355.219 Q295.444,357.375 295.444,360.938 Q295.444,363.188 295.433,364.758 Q295.421,366.328 295.397,368.25 Q295.397,370.055 295.995,372.012 Q296.593,373.969 296.593,374.532 Q296.593,375.516 295.667,376.325 Q294.741,377.133 293.569,377.133 Q292.585,377.133 291.624,376.207 Q290.663,375.282 289.585,373.524 z M289.163,364.266 Q287.757,364.782 285.073,365.356 Q282.39,365.93 281.358,366.2 Q280.327,366.469 279.39,367.254 Q278.452,368.039 278.452,369.446 Q278.452,370.899 279.554,371.918 Q280.655,372.938 282.437,372.938 Q284.335,372.938 285.94,372.106 Q287.546,371.274 288.296,369.961 Q289.163,368.508 289.163,365.18 z M301.093,351.68 L301.796,351.68 L301.796,347.836 Q301.796,346.289 301.878,345.41 Q301.96,344.532 302.335,343.899 Q302.71,343.242 303.413,342.832 Q304.116,342.422 304.983,342.422 Q306.202,342.422 307.187,343.336 Q307.843,343.946 308.019,344.825 Q308.194,345.703 308.194,347.321 L308.194,351.68 L310.538,351.68 Q311.897,351.68 312.612,352.325 Q313.327,352.969 313.327,353.977 Q313.327,355.266 312.308,355.782 Q311.288,356.297 309.39,356.297 L308.194,356.297 L308.194,368.063 Q308.194,369.563 308.3,370.371 Q308.405,371.18 308.862,371.684 Q309.319,372.188 310.351,372.188 Q310.913,372.188 311.874,371.989 Q312.835,371.789 313.374,371.789 Q314.147,371.789 314.769,372.41 Q315.39,373.032 315.39,373.946 Q315.39,375.492 313.702,376.313 Q312.015,377.133 308.851,377.133 Q305.851,377.133 304.304,376.125 Q302.757,375.117 302.276,373.336 Q301.796,371.555 301.796,368.578 L301.796,356.297 L300.952,356.297 Q299.569,356.297 298.843,355.641 Q298.116,354.985 298.116,353.977 Q298.116,352.969 298.878,352.325 Q299.64,351.68 301.093,351.68 z M333.905,373.524 Q331.585,375.328 329.417,376.231 Q327.249,377.133 324.554,377.133 Q322.093,377.133 320.229,376.16 Q318.366,375.188 317.358,373.524 Q316.351,371.86 316.351,369.914 Q316.351,367.289 318.015,365.438 Q319.679,363.586 322.585,362.953 Q323.194,362.813 325.608,362.321 Q328.022,361.828 329.745,361.418 Q331.468,361.008 333.483,360.422 Q333.366,357.891 332.464,356.707 Q331.562,355.524 328.726,355.524 Q326.288,355.524 325.058,356.203 Q323.827,356.883 322.948,358.242 Q322.069,359.602 321.706,360.035 Q321.343,360.469 320.147,360.469 Q319.069,360.469 318.284,359.778 Q317.499,359.086 317.499,358.008 Q317.499,356.321 318.694,354.727 Q319.89,353.133 322.421,352.102 Q324.952,351.071 328.726,351.071 Q332.944,351.071 335.358,352.067 Q337.772,353.063 338.769,355.219 Q339.765,357.375 339.765,360.938 Q339.765,363.188 339.753,364.758 Q339.741,366.328 339.718,368.25 Q339.718,370.055 340.315,372.012 Q340.913,373.969 340.913,374.532 Q340.913,375.516 339.987,376.325 Q339.062,377.133 337.89,377.133 Q336.905,377.133 335.944,376.207 Q334.983,375.282 333.905,373.524 z M333.483,364.266 Q332.077,364.782 329.394,365.356 Q326.71,365.93 325.679,366.2 Q324.647,366.469 323.71,367.254 Q322.772,368.039 322.772,369.446 Q322.772,370.899 323.874,371.918 Q324.976,372.938 326.757,372.938 Q328.655,372.938 330.261,372.106 Q331.866,371.274 332.616,369.961 Q333.483,368.508 333.483,365.18 z" fill="url(#Gradient_4)"/>
    </g>
  </g>
</svg>
