<?xml version="1.0" encoding="UTF-8"?>
<!DOCTYPE svg PUBLIC "-//W3C//DTD SVG 1.1//EN" "http://www.w3.org/Graphics/SVG/1.1/DTD/svg11.dtd">
<svg version="1.1" xmlns="http://www.w3.org/2000/svg" xmlns:xlink="http://www.w3.org/1999/xlink" x="0" y="0" width="72.364" height="63.602" viewBox="0, 0, 180.91, 159.004">
  <g id="Layer_1" transform="translate(-249.09, -366.996)">
    <g id="random">
      <path d="M298.91,498.441 C295.941,502.47 291.172,504.801 286.19,504.801 L254.39,504.801 C251.422,504.801 249.09,502.469 249.09,499.501 L249.09,478.301 C249.09,475.333 251.422,473.001 254.39,473.001 L278.24,473.001 L294.67,451.059 L312.796,479.891 L298.91,498.441 z" fill="#000000"/>
      <path d="M428.086,493.035 C427.98,493.035 427.98,493.141 427.874,493.141 L385.475,524.94 C381.839,527.607 376.995,524.888 376.995,520.7 L376.995,504.8 L349.789,504.8 C340.156,504.8 336.362,497.204 336.009,496.85 C310.511,456.383 292.208,427.451 287.673,420.002 L254.39,420.002 C251.422,420.002 249.09,417.67 249.09,414.701 L249.09,393.502 C249.09,390.534 251.422,388.202 254.39,388.202 L296.789,388.202 C301.834,388.202 307.256,390.668 310.358,395.834 C310.463,395.94 310.463,396.046 310.569,396.151 C310.792,396.506 356.791,469.529 358.905,473.001 L376.995,473.001 L376.995,457.101 C376.995,452.917 381.837,450.192 385.475,452.861 L427.874,484.661 C427.98,484.661 427.98,484.766 428.086,484.766 C430.634,486.891 430.641,490.906 428.086,493.035 z" fill="#000000"/>
      <path d="M427.874,408.343 L385.793,439.824 L385.475,440.142 C381.839,442.809 376.995,440.09 376.995,435.902 L376.995,420.002 L357.738,420.002 L347.033,434.206 L328.907,405.374 L337.069,394.563 C340.037,390.535 344.807,388.203 349.789,388.203 L376.995,388.203 L376.995,372.303 C376.995,367.918 382.123,365.455 385.475,368.063 L427.874,399.863 C430.701,401.819 430.707,406.381 427.874,408.343 z" fill="#000000"/>
    </g>
  </g>
</svg>
